<?xml version="1.0" encoding="utf-8" standalone="no"?>
<!DOCTYPE svg PUBLIC "-//W3C//DTD SVG 1.1//EN"
  "http://www.w3.org/Graphics/SVG/1.1/DTD/svg11.dtd">
<svg xmlns:xlink="http://www.w3.org/1999/xlink" width="414.46375pt" height="310.86825pt" viewBox="0 0 414.46375 310.86825" xmlns="http://www.w3.org/2000/svg" version="1.1">
 <metadata>
  <rdf:RDF xmlns:dc="http://purl.org/dc/elements/1.1/" xmlns:cc="http://creativecommons.org/ns#" xmlns:rdf="http://www.w3.org/1999/02/22-rdf-syntax-ns#">
   <cc:Work>
    <dc:type rdf:resource="http://purl.org/dc/dcmitype/StillImage"/>
    <dc:date>2022-04-07T14:43:30.359316</dc:date>
    <dc:format>image/svg+xml</dc:format>
    <dc:creator>
     <cc:Agent>
      <dc:title>Matplotlib v3.5.1, https://matplotlib.org/</dc:title>
     </cc:Agent>
    </dc:creator>
   </cc:Work>
  </rdf:RDF>
 </metadata>
 <defs>
  <style type="text/css">*{stroke-linejoin: round; stroke-linecap: butt}</style>
 </defs>
 <g id="figure_1">
  <g id="patch_1">
   <path d="M 0 310.86825 
L 414.46375 310.86825 
L 414.46375 0 
L 0 0 
z
" style="fill: #ffffff"/>
  </g>
  <g id="axes_1">
   <g id="patch_2">
    <path d="M 50.14375 273.312 
L 407.26375 273.312 
L 407.26375 7.2 
L 50.14375 7.2 
z
" style="fill: #ffffff"/>
   </g>
   <g id="patch_3">
    <path d="M 66.970916 273.312 
L 68.591167 273.312 
L 68.591167 272.702769 
L 66.970916 272.702769 
z
" clip-path="url(#pab4d2b2249)" style="fill: #1f77b4"/>
   </g>
   <g id="patch_4">
    <path d="M 68.591167 273.312 
L 70.211417 273.312 
L 70.211417 269.656615 
L 68.591167 269.656615 
z
" clip-path="url(#pab4d2b2249)" style="fill: #1f77b4"/>
   </g>
   <g id="patch_5">
    <path d="M 70.211417 273.312 
L 71.831667 273.312 
L 71.831667 272.702769 
L 70.211417 272.702769 
z
" clip-path="url(#pab4d2b2249)" style="fill: #1f77b4"/>
   </g>
   <g id="patch_6">
    <path d="M 71.831667 273.312 
L 73.451917 273.312 
L 73.451917 269.656615 
L 71.831667 269.656615 
z
" clip-path="url(#pab4d2b2249)" style="fill: #1f77b4"/>
   </g>
   <g id="patch_7">
    <path d="M 73.451917 273.312 
L 75.072168 273.312 
L 75.072168 267.828923 
L 73.451917 267.828923 
z
" clip-path="url(#pab4d2b2249)" style="fill: #1f77b4"/>
   </g>
   <g id="patch_8">
    <path d="M 75.072168 273.312 
L 76.692418 273.312 
L 76.692418 264.173538 
L 75.072168 264.173538 
z
" clip-path="url(#pab4d2b2249)" style="fill: #1f77b4"/>
   </g>
   <g id="patch_9">
    <path d="M 76.692418 273.312 
L 78.312668 273.312 
L 78.312668 267.828923 
L 76.692418 267.828923 
z
" clip-path="url(#pab4d2b2249)" style="fill: #1f77b4"/>
   </g>
   <g id="patch_10">
    <path d="M 78.312668 273.312 
L 79.932918 273.312 
L 79.932918 266.001231 
L 78.312668 266.001231 
z
" clip-path="url(#pab4d2b2249)" style="fill: #1f77b4"/>
   </g>
   <g id="patch_11">
    <path d="M 79.932918 273.312 
L 81.553168 273.312 
L 81.553168 269.047385 
L 79.932918 269.047385 
z
" clip-path="url(#pab4d2b2249)" style="fill: #1f77b4"/>
   </g>
   <g id="patch_12">
    <path d="M 81.553168 273.312 
L 83.173419 273.312 
L 83.173419 262.955077 
L 81.553168 262.955077 
z
" clip-path="url(#pab4d2b2249)" style="fill: #1f77b4"/>
   </g>
   <g id="patch_13">
    <path d="M 83.173419 273.312 
L 84.793669 273.312 
L 84.793669 263.564308 
L 83.173419 263.564308 
z
" clip-path="url(#pab4d2b2249)" style="fill: #1f77b4"/>
   </g>
   <g id="patch_14">
    <path d="M 84.793669 273.312 
L 86.413919 273.312 
L 86.413919 251.988923 
L 84.793669 251.988923 
z
" clip-path="url(#pab4d2b2249)" style="fill: #1f77b4"/>
   </g>
   <g id="patch_15">
    <path d="M 86.413919 273.312 
L 88.034169 273.312 
L 88.034169 261.127385 
L 86.413919 261.127385 
z
" clip-path="url(#pab4d2b2249)" style="fill: #1f77b4"/>
   </g>
   <g id="patch_16">
    <path d="M 88.034169 273.312 
L 89.65442 273.312 
L 89.65442 257.472 
L 88.034169 257.472 
z
" clip-path="url(#pab4d2b2249)" style="fill: #1f77b4"/>
   </g>
   <g id="patch_17">
    <path d="M 89.65442 273.312 
L 91.27467 273.312 
L 91.27467 254.425846 
L 89.65442 254.425846 
z
" clip-path="url(#pab4d2b2249)" style="fill: #1f77b4"/>
   </g>
   <g id="patch_18">
    <path d="M 91.27467 273.312 
L 92.89492 273.312 
L 92.89492 251.988923 
L 91.27467 251.988923 
z
" clip-path="url(#pab4d2b2249)" style="fill: #1f77b4"/>
   </g>
   <g id="patch_19">
    <path d="M 92.89492 273.312 
L 94.51517 273.312 
L 94.51517 259.299692 
L 92.89492 259.299692 
z
" clip-path="url(#pab4d2b2249)" style="fill: #1f77b4"/>
   </g>
   <g id="patch_20">
    <path d="M 94.51517 273.312 
L 96.135421 273.312 
L 96.135421 248.333538 
L 94.51517 248.333538 
z
" clip-path="url(#pab4d2b2249)" style="fill: #1f77b4"/>
   </g>
   <g id="patch_21">
    <path d="M 96.135421 273.312 
L 97.755671 273.312 
L 97.755671 246.505846 
L 96.135421 246.505846 
z
" clip-path="url(#pab4d2b2249)" style="fill: #1f77b4"/>
   </g>
   <g id="patch_22">
    <path d="M 97.755671 273.312 
L 99.375921 273.312 
L 99.375921 251.988923 
L 97.755671 251.988923 
z
" clip-path="url(#pab4d2b2249)" style="fill: #1f77b4"/>
   </g>
   <g id="patch_23">
    <path d="M 99.375921 273.312 
L 100.996171 273.312 
L 100.996171 244.678154 
L 99.375921 244.678154 
z
" clip-path="url(#pab4d2b2249)" style="fill: #1f77b4"/>
   </g>
   <g id="patch_24">
    <path d="M 100.996171 273.312 
L 102.616422 273.312 
L 102.616422 244.678154 
L 100.996171 244.678154 
z
" clip-path="url(#pab4d2b2249)" style="fill: #1f77b4"/>
   </g>
   <g id="patch_25">
    <path d="M 102.616422 273.312 
L 104.236672 273.312 
L 104.236672 240.413538 
L 102.616422 240.413538 
z
" clip-path="url(#pab4d2b2249)" style="fill: #1f77b4"/>
   </g>
   <g id="patch_26">
    <path d="M 104.236672 273.312 
L 105.856922 273.312 
L 105.856922 242.850462 
L 104.236672 242.850462 
z
" clip-path="url(#pab4d2b2249)" style="fill: #1f77b4"/>
   </g>
   <g id="patch_27">
    <path d="M 105.856922 273.312 
L 107.477172 273.312 
L 107.477172 228.838154 
L 105.856922 228.838154 
z
" clip-path="url(#pab4d2b2249)" style="fill: #1f77b4"/>
   </g>
   <g id="patch_28">
    <path d="M 107.477172 273.312 
L 109.097423 273.312 
L 109.097423 249.552 
L 107.477172 249.552 
z
" clip-path="url(#pab4d2b2249)" style="fill: #1f77b4"/>
   </g>
   <g id="patch_29">
    <path d="M 109.097423 273.312 
L 110.717673 273.312 
L 110.717673 237.976615 
L 109.097423 237.976615 
z
" clip-path="url(#pab4d2b2249)" style="fill: #1f77b4"/>
   </g>
   <g id="patch_30">
    <path d="M 110.717673 273.312 
L 112.337923 273.312 
L 112.337923 236.758154 
L 110.717673 236.758154 
z
" clip-path="url(#pab4d2b2249)" style="fill: #1f77b4"/>
   </g>
   <g id="patch_31">
    <path d="M 112.337923 273.312 
L 113.958173 273.312 
L 113.958173 229.447385 
L 112.337923 229.447385 
z
" clip-path="url(#pab4d2b2249)" style="fill: #1f77b4"/>
   </g>
   <g id="patch_32">
    <path d="M 113.958173 273.312 
L 115.578424 273.312 
L 115.578424 241.022769 
L 113.958173 241.022769 
z
" clip-path="url(#pab4d2b2249)" style="fill: #1f77b4"/>
   </g>
   <g id="patch_33">
    <path d="M 115.578424 273.312 
L 117.198674 273.312 
L 117.198674 228.838154 
L 115.578424 228.838154 
z
" clip-path="url(#pab4d2b2249)" style="fill: #1f77b4"/>
   </g>
   <g id="patch_34">
    <path d="M 117.198674 273.312 
L 118.818924 273.312 
L 118.818924 236.148923 
L 117.198674 236.148923 
z
" clip-path="url(#pab4d2b2249)" style="fill: #1f77b4"/>
   </g>
   <g id="patch_35">
    <path d="M 118.818924 273.312 
L 120.439174 273.312 
L 120.439174 236.758154 
L 118.818924 236.758154 
z
" clip-path="url(#pab4d2b2249)" style="fill: #1f77b4"/>
   </g>
   <g id="patch_36">
    <path d="M 120.439174 273.312 
L 122.059425 273.312 
L 122.059425 229.447385 
L 120.439174 229.447385 
z
" clip-path="url(#pab4d2b2249)" style="fill: #1f77b4"/>
   </g>
   <g id="patch_37">
    <path d="M 122.059425 273.312 
L 123.679675 273.312 
L 123.679675 229.447385 
L 122.059425 229.447385 
z
" clip-path="url(#pab4d2b2249)" style="fill: #1f77b4"/>
   </g>
   <g id="patch_38">
    <path d="M 123.679675 273.312 
L 125.299925 273.312 
L 125.299925 228.228923 
L 123.679675 228.228923 
z
" clip-path="url(#pab4d2b2249)" style="fill: #1f77b4"/>
   </g>
   <g id="patch_39">
    <path d="M 125.299925 273.312 
L 126.920175 273.312 
L 126.920175 238.585846 
L 125.299925 238.585846 
z
" clip-path="url(#pab4d2b2249)" style="fill: #1f77b4"/>
   </g>
   <g id="patch_40">
    <path d="M 126.920175 273.312 
L 128.540426 273.312 
L 128.540426 232.493538 
L 126.920175 232.493538 
z
" clip-path="url(#pab4d2b2249)" style="fill: #1f77b4"/>
   </g>
   <g id="patch_41">
    <path d="M 128.540426 273.312 
L 130.160676 273.312 
L 130.160676 227.619692 
L 128.540426 227.619692 
z
" clip-path="url(#pab4d2b2249)" style="fill: #1f77b4"/>
   </g>
   <g id="patch_42">
    <path d="M 130.160676 273.312 
L 131.780926 273.312 
L 131.780926 227.619692 
L 130.160676 227.619692 
z
" clip-path="url(#pab4d2b2249)" style="fill: #1f77b4"/>
   </g>
   <g id="patch_43">
    <path d="M 131.780926 273.312 
L 133.401176 273.312 
L 133.401176 222.745846 
L 131.780926 222.745846 
z
" clip-path="url(#pab4d2b2249)" style="fill: #1f77b4"/>
   </g>
   <g id="patch_44">
    <path d="M 133.401176 273.312 
L 135.021427 273.312 
L 135.021427 225.182769 
L 133.401176 225.182769 
z
" clip-path="url(#pab4d2b2249)" style="fill: #1f77b4"/>
   </g>
   <g id="patch_45">
    <path d="M 135.021427 273.312 
L 136.641677 273.312 
L 136.641677 206.296615 
L 135.021427 206.296615 
z
" clip-path="url(#pab4d2b2249)" style="fill: #1f77b4"/>
   </g>
   <g id="patch_46">
    <path d="M 136.641677 273.312 
L 138.261927 273.312 
L 138.261927 221.527385 
L 136.641677 221.527385 
z
" clip-path="url(#pab4d2b2249)" style="fill: #1f77b4"/>
   </g>
   <g id="patch_47">
    <path d="M 138.261927 273.312 
L 139.882177 273.312 
L 139.882177 227.010462 
L 138.261927 227.010462 
z
" clip-path="url(#pab4d2b2249)" style="fill: #1f77b4"/>
   </g>
   <g id="patch_48">
    <path d="M 139.882177 273.312 
L 141.502427 273.312 
L 141.502427 216.653538 
L 139.882177 216.653538 
z
" clip-path="url(#pab4d2b2249)" style="fill: #1f77b4"/>
   </g>
   <g id="patch_49">
    <path d="M 141.502427 273.312 
L 143.122678 273.312 
L 143.122678 220.918154 
L 141.502427 220.918154 
z
" clip-path="url(#pab4d2b2249)" style="fill: #1f77b4"/>
   </g>
   <g id="patch_50">
    <path d="M 143.122678 273.312 
L 144.742928 273.312 
L 144.742928 219.090462 
L 143.122678 219.090462 
z
" clip-path="url(#pab4d2b2249)" style="fill: #1f77b4"/>
   </g>
   <g id="patch_51">
    <path d="M 144.742928 273.312 
L 146.363178 273.312 
L 146.363178 208.733538 
L 144.742928 208.733538 
z
" clip-path="url(#pab4d2b2249)" style="fill: #1f77b4"/>
   </g>
   <g id="patch_52">
    <path d="M 146.363178 273.312 
L 147.983428 273.312 
L 147.983428 211.170462 
L 146.363178 211.170462 
z
" clip-path="url(#pab4d2b2249)" style="fill: #1f77b4"/>
   </g>
   <g id="patch_53">
    <path d="M 147.983428 273.312 
L 149.603679 273.312 
L 149.603679 214.216615 
L 147.983428 214.216615 
z
" clip-path="url(#pab4d2b2249)" style="fill: #1f77b4"/>
   </g>
   <g id="patch_54">
    <path d="M 149.603679 273.312 
L 151.223929 273.312 
L 151.223929 209.952 
L 149.603679 209.952 
z
" clip-path="url(#pab4d2b2249)" style="fill: #1f77b4"/>
   </g>
   <g id="patch_55">
    <path d="M 151.223929 273.312 
L 152.844179 273.312 
L 152.844179 197.767385 
L 151.223929 197.767385 
z
" clip-path="url(#pab4d2b2249)" style="fill: #1f77b4"/>
   </g>
   <g id="patch_56">
    <path d="M 152.844179 273.312 
L 154.464429 273.312 
L 154.464429 215.435077 
L 152.844179 215.435077 
z
" clip-path="url(#pab4d2b2249)" style="fill: #1f77b4"/>
   </g>
   <g id="patch_57">
    <path d="M 154.464429 273.312 
L 156.08468 273.312 
L 156.08468 189.847385 
L 154.464429 189.847385 
z
" clip-path="url(#pab4d2b2249)" style="fill: #1f77b4"/>
   </g>
   <g id="patch_58">
    <path d="M 156.08468 273.312 
L 157.70493 273.312 
L 157.70493 196.548923 
L 156.08468 196.548923 
z
" clip-path="url(#pab4d2b2249)" style="fill: #1f77b4"/>
   </g>
   <g id="patch_59">
    <path d="M 157.70493 273.312 
L 159.32518 273.312 
L 159.32518 190.456615 
L 157.70493 190.456615 
z
" clip-path="url(#pab4d2b2249)" style="fill: #1f77b4"/>
   </g>
   <g id="patch_60">
    <path d="M 159.32518 273.312 
L 160.94543 273.312 
L 160.94543 193.502769 
L 159.32518 193.502769 
z
" clip-path="url(#pab4d2b2249)" style="fill: #1f77b4"/>
   </g>
   <g id="patch_61">
    <path d="M 160.94543 273.312 
L 162.565681 273.312 
L 162.565681 192.893538 
L 160.94543 192.893538 
z
" clip-path="url(#pab4d2b2249)" style="fill: #1f77b4"/>
   </g>
   <g id="patch_62">
    <path d="M 162.565681 273.312 
L 164.185931 273.312 
L 164.185931 209.952 
L 162.565681 209.952 
z
" clip-path="url(#pab4d2b2249)" style="fill: #1f77b4"/>
   </g>
   <g id="patch_63">
    <path d="M 164.185931 273.312 
L 165.806181 273.312 
L 165.806181 206.905846 
L 164.185931 206.905846 
z
" clip-path="url(#pab4d2b2249)" style="fill: #1f77b4"/>
   </g>
   <g id="patch_64">
    <path d="M 165.806181 273.312 
L 167.426431 273.312 
L 167.426431 200.204308 
L 165.806181 200.204308 
z
" clip-path="url(#pab4d2b2249)" style="fill: #1f77b4"/>
   </g>
   <g id="patch_65">
    <path d="M 167.426431 273.312 
L 169.046682 273.312 
L 169.046682 198.376615 
L 167.426431 198.376615 
z
" clip-path="url(#pab4d2b2249)" style="fill: #1f77b4"/>
   </g>
   <g id="patch_66">
    <path d="M 169.046682 273.312 
L 170.666932 273.312 
L 170.666932 195.939692 
L 169.046682 195.939692 
z
" clip-path="url(#pab4d2b2249)" style="fill: #1f77b4"/>
   </g>
   <g id="patch_67">
    <path d="M 170.666932 273.312 
L 172.287182 273.312 
L 172.287182 192.284308 
L 170.666932 192.284308 
z
" clip-path="url(#pab4d2b2249)" style="fill: #1f77b4"/>
   </g>
   <g id="patch_68">
    <path d="M 172.287182 273.312 
L 173.907432 273.312 
L 173.907432 195.330462 
L 172.287182 195.330462 
z
" clip-path="url(#pab4d2b2249)" style="fill: #1f77b4"/>
   </g>
   <g id="patch_69">
    <path d="M 173.907432 273.312 
L 175.527683 273.312 
L 175.527683 194.721231 
L 173.907432 194.721231 
z
" clip-path="url(#pab4d2b2249)" style="fill: #1f77b4"/>
   </g>
   <g id="patch_70">
    <path d="M 175.527683 273.312 
L 177.147933 273.312 
L 177.147933 195.939692 
L 175.527683 195.939692 
z
" clip-path="url(#pab4d2b2249)" style="fill: #1f77b4"/>
   </g>
   <g id="patch_71">
    <path d="M 177.147933 273.312 
L 178.768183 273.312 
L 178.768183 187.410462 
L 177.147933 187.410462 
z
" clip-path="url(#pab4d2b2249)" style="fill: #1f77b4"/>
   </g>
   <g id="patch_72">
    <path d="M 178.768183 273.312 
L 180.388433 273.312 
L 180.388433 189.847385 
L 178.768183 189.847385 
z
" clip-path="url(#pab4d2b2249)" style="fill: #1f77b4"/>
   </g>
   <g id="patch_73">
    <path d="M 180.388433 273.312 
L 182.008684 273.312 
L 182.008684 182.536615 
L 180.388433 182.536615 
z
" clip-path="url(#pab4d2b2249)" style="fill: #1f77b4"/>
   </g>
   <g id="patch_74">
    <path d="M 182.008684 273.312 
L 183.628934 273.312 
L 183.628934 186.192 
L 182.008684 186.192 
z
" clip-path="url(#pab4d2b2249)" style="fill: #1f77b4"/>
   </g>
   <g id="patch_75">
    <path d="M 183.628934 273.312 
L 185.249184 273.312 
L 185.249184 184.364308 
L 183.628934 184.364308 
z
" clip-path="url(#pab4d2b2249)" style="fill: #1f77b4"/>
   </g>
   <g id="patch_76">
    <path d="M 185.249184 273.312 
L 186.869434 273.312 
L 186.869434 180.099692 
L 185.249184 180.099692 
z
" clip-path="url(#pab4d2b2249)" style="fill: #1f77b4"/>
   </g>
   <g id="patch_77">
    <path d="M 186.869434 273.312 
L 188.489685 273.312 
L 188.489685 188.628923 
L 186.869434 188.628923 
z
" clip-path="url(#pab4d2b2249)" style="fill: #1f77b4"/>
   </g>
   <g id="patch_78">
    <path d="M 188.489685 273.312 
L 190.109935 273.312 
L 190.109935 170.961231 
L 188.489685 170.961231 
z
" clip-path="url(#pab4d2b2249)" style="fill: #1f77b4"/>
   </g>
   <g id="patch_79">
    <path d="M 190.109935 273.312 
L 191.730185 273.312 
L 191.730185 179.490462 
L 190.109935 179.490462 
z
" clip-path="url(#pab4d2b2249)" style="fill: #1f77b4"/>
   </g>
   <g id="patch_80">
    <path d="M 191.730185 273.312 
L 193.350435 273.312 
L 193.350435 179.490462 
L 191.730185 179.490462 
z
" clip-path="url(#pab4d2b2249)" style="fill: #1f77b4"/>
   </g>
   <g id="patch_81">
    <path d="M 193.350435 273.312 
L 194.970686 273.312 
L 194.970686 174.007385 
L 193.350435 174.007385 
z
" clip-path="url(#pab4d2b2249)" style="fill: #1f77b4"/>
   </g>
   <g id="patch_82">
    <path d="M 194.970686 273.312 
L 196.590936 273.312 
L 196.590936 179.490462 
L 194.970686 179.490462 
z
" clip-path="url(#pab4d2b2249)" style="fill: #1f77b4"/>
   </g>
   <g id="patch_83">
    <path d="M 196.590936 273.312 
L 198.211186 273.312 
L 198.211186 184.973538 
L 196.590936 184.973538 
z
" clip-path="url(#pab4d2b2249)" style="fill: #1f77b4"/>
   </g>
   <g id="patch_84">
    <path d="M 198.211186 273.312 
L 199.831436 273.312 
L 199.831436 167.305846 
L 198.211186 167.305846 
z
" clip-path="url(#pab4d2b2249)" style="fill: #1f77b4"/>
   </g>
   <g id="patch_85">
    <path d="M 199.831436 273.312 
L 201.451687 273.312 
L 201.451687 169.133538 
L 199.831436 169.133538 
z
" clip-path="url(#pab4d2b2249)" style="fill: #1f77b4"/>
   </g>
   <g id="patch_86">
    <path d="M 201.451687 273.312 
L 203.071937 273.312 
L 203.071937 163.650462 
L 201.451687 163.650462 
z
" clip-path="url(#pab4d2b2249)" style="fill: #1f77b4"/>
   </g>
   <g id="patch_87">
    <path d="M 203.071937 273.312 
L 204.692187 273.312 
L 204.692187 170.961231 
L 203.071937 170.961231 
z
" clip-path="url(#pab4d2b2249)" style="fill: #1f77b4"/>
   </g>
   <g id="patch_88">
    <path d="M 204.692187 273.312 
L 206.312437 273.312 
L 206.312437 176.444308 
L 204.692187 176.444308 
z
" clip-path="url(#pab4d2b2249)" style="fill: #1f77b4"/>
   </g>
   <g id="patch_89">
    <path d="M 206.312437 273.312 
L 207.932687 273.312 
L 207.932687 175.225846 
L 206.312437 175.225846 
z
" clip-path="url(#pab4d2b2249)" style="fill: #1f77b4"/>
   </g>
   <g id="patch_90">
    <path d="M 207.932687 273.312 
L 209.552938 273.312 
L 209.552938 157.558154 
L 207.932687 157.558154 
z
" clip-path="url(#pab4d2b2249)" style="fill: #1f77b4"/>
   </g>
   <g id="patch_91">
    <path d="M 209.552938 273.312 
L 211.173188 273.312 
L 211.173188 167.305846 
L 209.552938 167.305846 
z
" clip-path="url(#pab4d2b2249)" style="fill: #1f77b4"/>
   </g>
   <g id="patch_92">
    <path d="M 211.173188 273.312 
L 212.793438 273.312 
L 212.793438 163.650462 
L 211.173188 163.650462 
z
" clip-path="url(#pab4d2b2249)" style="fill: #1f77b4"/>
   </g>
   <g id="patch_93">
    <path d="M 212.793438 273.312 
L 214.413688 273.312 
L 214.413688 159.385846 
L 212.793438 159.385846 
z
" clip-path="url(#pab4d2b2249)" style="fill: #1f77b4"/>
   </g>
   <g id="patch_94">
    <path d="M 214.413688 273.312 
L 216.033939 273.312 
L 216.033939 159.995077 
L 214.413688 159.995077 
z
" clip-path="url(#pab4d2b2249)" style="fill: #1f77b4"/>
   </g>
   <g id="patch_95">
    <path d="M 216.033939 273.312 
L 217.654189 273.312 
L 217.654189 180.099692 
L 216.033939 180.099692 
z
" clip-path="url(#pab4d2b2249)" style="fill: #1f77b4"/>
   </g>
   <g id="patch_96">
    <path d="M 217.654189 273.312 
L 219.274439 273.312 
L 219.274439 150.856615 
L 217.654189 150.856615 
z
" clip-path="url(#pab4d2b2249)" style="fill: #1f77b4"/>
   </g>
   <g id="patch_97">
    <path d="M 219.274439 273.312 
L 220.894689 273.312 
L 220.894689 167.915077 
L 219.274439 167.915077 
z
" clip-path="url(#pab4d2b2249)" style="fill: #1f77b4"/>
   </g>
   <g id="patch_98">
    <path d="M 220.894689 273.312 
L 222.51494 273.312 
L 222.51494 168.524308 
L 220.894689 168.524308 
z
" clip-path="url(#pab4d2b2249)" style="fill: #1f77b4"/>
   </g>
   <g id="patch_99">
    <path d="M 222.51494 273.312 
L 224.13519 273.312 
L 224.13519 158.167385 
L 222.51494 158.167385 
z
" clip-path="url(#pab4d2b2249)" style="fill: #1f77b4"/>
   </g>
   <g id="patch_100">
    <path d="M 224.13519 273.312 
L 225.75544 273.312 
L 225.75544 158.776615 
L 224.13519 158.776615 
z
" clip-path="url(#pab4d2b2249)" style="fill: #1f77b4"/>
   </g>
   <g id="patch_101">
    <path d="M 225.75544 273.312 
L 227.37569 273.312 
L 227.37569 149.028923 
L 225.75544 149.028923 
z
" clip-path="url(#pab4d2b2249)" style="fill: #1f77b4"/>
   </g>
   <g id="patch_102">
    <path d="M 227.37569 273.312 
L 228.995941 273.312 
L 228.995941 131.970462 
L 227.37569 131.970462 
z
" clip-path="url(#pab4d2b2249)" style="fill: #1f77b4"/>
   </g>
   <g id="patch_103">
    <path d="M 228.995941 273.312 
L 230.616191 273.312 
L 230.616191 145.982769 
L 228.995941 145.982769 
z
" clip-path="url(#pab4d2b2249)" style="fill: #1f77b4"/>
   </g>
   <g id="patch_104">
    <path d="M 230.616191 273.312 
L 232.236441 273.312 
L 232.236441 150.856615 
L 230.616191 150.856615 
z
" clip-path="url(#pab4d2b2249)" style="fill: #1f77b4"/>
   </g>
   <g id="patch_105">
    <path d="M 232.236441 273.312 
L 233.856691 273.312 
L 233.856691 159.385846 
L 232.236441 159.385846 
z
" clip-path="url(#pab4d2b2249)" style="fill: #1f77b4"/>
   </g>
   <g id="patch_106">
    <path d="M 233.856691 273.312 
L 235.476942 273.312 
L 235.476942 156.948923 
L 233.856691 156.948923 
z
" clip-path="url(#pab4d2b2249)" style="fill: #1f77b4"/>
   </g>
   <g id="patch_107">
    <path d="M 235.476942 273.312 
L 237.097192 273.312 
L 237.097192 145.373538 
L 235.476942 145.373538 
z
" clip-path="url(#pab4d2b2249)" style="fill: #1f77b4"/>
   </g>
   <g id="patch_108">
    <path d="M 237.097192 273.312 
L 238.717442 273.312 
L 238.717442 163.650462 
L 237.097192 163.650462 
z
" clip-path="url(#pab4d2b2249)" style="fill: #1f77b4"/>
   </g>
   <g id="patch_109">
    <path d="M 238.717442 273.312 
L 240.337692 273.312 
L 240.337692 139.281231 
L 238.717442 139.281231 
z
" clip-path="url(#pab4d2b2249)" style="fill: #1f77b4"/>
   </g>
   <g id="patch_110">
    <path d="M 240.337692 273.312 
L 241.957943 273.312 
L 241.957943 130.142769 
L 240.337692 130.142769 
z
" clip-path="url(#pab4d2b2249)" style="fill: #1f77b4"/>
   </g>
   <g id="patch_111">
    <path d="M 241.957943 273.312 
L 243.578193 273.312 
L 243.578193 129.533538 
L 241.957943 129.533538 
z
" clip-path="url(#pab4d2b2249)" style="fill: #1f77b4"/>
   </g>
   <g id="patch_112">
    <path d="M 243.578193 273.312 
L 245.198443 273.312 
L 245.198443 142.327385 
L 243.578193 142.327385 
z
" clip-path="url(#pab4d2b2249)" style="fill: #1f77b4"/>
   </g>
   <g id="patch_113">
    <path d="M 245.198443 273.312 
L 246.818693 273.312 
L 246.818693 144.764308 
L 245.198443 144.764308 
z
" clip-path="url(#pab4d2b2249)" style="fill: #1f77b4"/>
   </g>
   <g id="patch_114">
    <path d="M 246.818693 273.312 
L 248.438944 273.312 
L 248.438944 128.315077 
L 246.818693 128.315077 
z
" clip-path="url(#pab4d2b2249)" style="fill: #1f77b4"/>
   </g>
   <g id="patch_115">
    <path d="M 248.438944 273.312 
L 250.059194 273.312 
L 250.059194 139.281231 
L 248.438944 139.281231 
z
" clip-path="url(#pab4d2b2249)" style="fill: #1f77b4"/>
   </g>
   <g id="patch_116">
    <path d="M 250.059194 273.312 
L 251.679444 273.312 
L 251.679444 137.453538 
L 250.059194 137.453538 
z
" clip-path="url(#pab4d2b2249)" style="fill: #1f77b4"/>
   </g>
   <g id="patch_117">
    <path d="M 251.679444 273.312 
L 253.299694 273.312 
L 253.299694 121.004308 
L 251.679444 121.004308 
z
" clip-path="url(#pab4d2b2249)" style="fill: #1f77b4"/>
   </g>
   <g id="patch_118">
    <path d="M 253.299694 273.312 
L 254.919945 273.312 
L 254.919945 119.785846 
L 253.299694 119.785846 
z
" clip-path="url(#pab4d2b2249)" style="fill: #1f77b4"/>
   </g>
   <g id="patch_119">
    <path d="M 254.919945 273.312 
L 256.540195 273.312 
L 256.540195 127.705846 
L 254.919945 127.705846 
z
" clip-path="url(#pab4d2b2249)" style="fill: #1f77b4"/>
   </g>
   <g id="patch_120">
    <path d="M 256.540195 273.312 
L 258.160445 273.312 
L 258.160445 113.084308 
L 256.540195 113.084308 
z
" clip-path="url(#pab4d2b2249)" style="fill: #1f77b4"/>
   </g>
   <g id="patch_121">
    <path d="M 258.160445 273.312 
L 259.780695 273.312 
L 259.780695 128.924308 
L 258.160445 128.924308 
z
" clip-path="url(#pab4d2b2249)" style="fill: #1f77b4"/>
   </g>
   <g id="patch_122">
    <path d="M 259.780695 273.312 
L 261.400946 273.312 
L 261.400946 138.062769 
L 259.780695 138.062769 
z
" clip-path="url(#pab4d2b2249)" style="fill: #1f77b4"/>
   </g>
   <g id="patch_123">
    <path d="M 261.400946 273.312 
L 263.021196 273.312 
L 263.021196 129.533538 
L 261.400946 129.533538 
z
" clip-path="url(#pab4d2b2249)" style="fill: #1f77b4"/>
   </g>
   <g id="patch_124">
    <path d="M 263.021196 273.312 
L 264.641446 273.312 
L 264.641446 113.693538 
L 263.021196 113.693538 
z
" clip-path="url(#pab4d2b2249)" style="fill: #1f77b4"/>
   </g>
   <g id="patch_125">
    <path d="M 264.641446 273.312 
L 266.261696 273.312 
L 266.261696 145.982769 
L 264.641446 145.982769 
z
" clip-path="url(#pab4d2b2249)" style="fill: #1f77b4"/>
   </g>
   <g id="patch_126">
    <path d="M 266.261696 273.312 
L 267.881946 273.312 
L 267.881946 128.924308 
L 266.261696 128.924308 
z
" clip-path="url(#pab4d2b2249)" style="fill: #1f77b4"/>
   </g>
   <g id="patch_127">
    <path d="M 267.881946 273.312 
L 269.502197 273.312 
L 269.502197 134.407385 
L 267.881946 134.407385 
z
" clip-path="url(#pab4d2b2249)" style="fill: #1f77b4"/>
   </g>
   <g id="patch_128">
    <path d="M 269.502197 273.312 
L 271.122447 273.312 
L 271.122447 119.785846 
L 269.502197 119.785846 
z
" clip-path="url(#pab4d2b2249)" style="fill: #1f77b4"/>
   </g>
   <g id="patch_129">
    <path d="M 271.122447 273.312 
L 272.742697 273.312 
L 272.742697 133.798154 
L 271.122447 133.798154 
z
" clip-path="url(#pab4d2b2249)" style="fill: #1f77b4"/>
   </g>
   <g id="patch_130">
    <path d="M 272.742697 273.312 
L 274.362947 273.312 
L 274.362947 127.096615 
L 272.742697 127.096615 
z
" clip-path="url(#pab4d2b2249)" style="fill: #1f77b4"/>
   </g>
   <g id="patch_131">
    <path d="M 274.362947 273.312 
L 275.983198 273.312 
L 275.983198 119.785846 
L 274.362947 119.785846 
z
" clip-path="url(#pab4d2b2249)" style="fill: #1f77b4"/>
   </g>
   <g id="patch_132">
    <path d="M 275.983198 273.312 
L 277.603448 273.312 
L 277.603448 117.958154 
L 275.983198 117.958154 
z
" clip-path="url(#pab4d2b2249)" style="fill: #1f77b4"/>
   </g>
   <g id="patch_133">
    <path d="M 277.603448 273.312 
L 279.223698 273.312 
L 279.223698 119.176615 
L 277.603448 119.176615 
z
" clip-path="url(#pab4d2b2249)" style="fill: #1f77b4"/>
   </g>
   <g id="patch_134">
    <path d="M 279.223698 273.312 
L 280.843948 273.312 
L 280.843948 100.899692 
L 279.223698 100.899692 
z
" clip-path="url(#pab4d2b2249)" style="fill: #1f77b4"/>
   </g>
   <g id="patch_135">
    <path d="M 280.843948 273.312 
L 282.464199 273.312 
L 282.464199 108.210462 
L 280.843948 108.210462 
z
" clip-path="url(#pab4d2b2249)" style="fill: #1f77b4"/>
   </g>
   <g id="patch_136">
    <path d="M 282.464199 273.312 
L 284.084449 273.312 
L 284.084449 128.315077 
L 282.464199 128.315077 
z
" clip-path="url(#pab4d2b2249)" style="fill: #1f77b4"/>
   </g>
   <g id="patch_137">
    <path d="M 284.084449 273.312 
L 285.704699 273.312 
L 285.704699 118.567385 
L 284.084449 118.567385 
z
" clip-path="url(#pab4d2b2249)" style="fill: #1f77b4"/>
   </g>
   <g id="patch_138">
    <path d="M 285.704699 273.312 
L 287.324949 273.312 
L 287.324949 107.601231 
L 285.704699 107.601231 
z
" clip-path="url(#pab4d2b2249)" style="fill: #1f77b4"/>
   </g>
   <g id="patch_139">
    <path d="M 287.324949 273.312 
L 288.9452 273.312 
L 288.9452 92.979692 
L 287.324949 92.979692 
z
" clip-path="url(#pab4d2b2249)" style="fill: #1f77b4"/>
   </g>
   <g id="patch_140">
    <path d="M 288.9452 273.312 
L 290.56545 273.312 
L 290.56545 111.256615 
L 288.9452 111.256615 
z
" clip-path="url(#pab4d2b2249)" style="fill: #1f77b4"/>
   </g>
   <g id="patch_141">
    <path d="M 290.56545 273.312 
L 292.1857 273.312 
L 292.1857 113.084308 
L 290.56545 113.084308 
z
" clip-path="url(#pab4d2b2249)" style="fill: #1f77b4"/>
   </g>
   <g id="patch_142">
    <path d="M 292.1857 273.312 
L 293.80595 273.312 
L 293.80595 118.567385 
L 292.1857 118.567385 
z
" clip-path="url(#pab4d2b2249)" style="fill: #1f77b4"/>
   </g>
   <g id="patch_143">
    <path d="M 293.80595 273.312 
L 295.426201 273.312 
L 295.426201 92.979692 
L 293.80595 92.979692 
z
" clip-path="url(#pab4d2b2249)" style="fill: #1f77b4"/>
   </g>
   <g id="patch_144">
    <path d="M 295.426201 273.312 
L 297.046451 273.312 
L 297.046451 104.555077 
L 295.426201 104.555077 
z
" clip-path="url(#pab4d2b2249)" style="fill: #1f77b4"/>
   </g>
   <g id="patch_145">
    <path d="M 297.046451 273.312 
L 298.666701 273.312 
L 298.666701 95.416615 
L 297.046451 95.416615 
z
" clip-path="url(#pab4d2b2249)" style="fill: #1f77b4"/>
   </g>
   <g id="patch_146">
    <path d="M 298.666701 273.312 
L 300.286951 273.312 
L 300.286951 89.324308 
L 298.666701 89.324308 
z
" clip-path="url(#pab4d2b2249)" style="fill: #1f77b4"/>
   </g>
   <g id="patch_147">
    <path d="M 300.286951 273.312 
L 301.907202 273.312 
L 301.907202 91.761231 
L 300.286951 91.761231 
z
" clip-path="url(#pab4d2b2249)" style="fill: #1f77b4"/>
   </g>
   <g id="patch_148">
    <path d="M 301.907202 273.312 
L 303.527452 273.312 
L 303.527452 97.244308 
L 301.907202 97.244308 
z
" clip-path="url(#pab4d2b2249)" style="fill: #1f77b4"/>
   </g>
   <g id="patch_149">
    <path d="M 303.527452 273.312 
L 305.147702 273.312 
L 305.147702 78.358154 
L 303.527452 78.358154 
z
" clip-path="url(#pab4d2b2249)" style="fill: #1f77b4"/>
   </g>
   <g id="patch_150">
    <path d="M 305.147702 273.312 
L 306.767952 273.312 
L 306.767952 80.795077 
L 305.147702 80.795077 
z
" clip-path="url(#pab4d2b2249)" style="fill: #1f77b4"/>
   </g>
   <g id="patch_151">
    <path d="M 306.767952 273.312 
L 308.388203 273.312 
L 308.388203 97.244308 
L 306.767952 97.244308 
z
" clip-path="url(#pab4d2b2249)" style="fill: #1f77b4"/>
   </g>
   <g id="patch_152">
    <path d="M 308.388203 273.312 
L 310.008453 273.312 
L 310.008453 112.475077 
L 308.388203 112.475077 
z
" clip-path="url(#pab4d2b2249)" style="fill: #1f77b4"/>
   </g>
   <g id="patch_153">
    <path d="M 310.008453 273.312 
L 311.628703 273.312 
L 311.628703 75.921231 
L 310.008453 75.921231 
z
" clip-path="url(#pab4d2b2249)" style="fill: #1f77b4"/>
   </g>
   <g id="patch_154">
    <path d="M 311.628703 273.312 
L 313.248953 273.312 
L 313.248953 83.841231 
L 311.628703 83.841231 
z
" clip-path="url(#pab4d2b2249)" style="fill: #1f77b4"/>
   </g>
   <g id="patch_155">
    <path d="M 313.248953 273.312 
L 314.869204 273.312 
L 314.869204 75.312 
L 313.248953 75.312 
z
" clip-path="url(#pab4d2b2249)" style="fill: #1f77b4"/>
   </g>
   <g id="patch_156">
    <path d="M 314.869204 273.312 
L 316.489454 273.312 
L 316.489454 77.139692 
L 314.869204 77.139692 
z
" clip-path="url(#pab4d2b2249)" style="fill: #1f77b4"/>
   </g>
   <g id="patch_157">
    <path d="M 316.489454 273.312 
L 318.109704 273.312 
L 318.109704 87.496615 
L 316.489454 87.496615 
z
" clip-path="url(#pab4d2b2249)" style="fill: #1f77b4"/>
   </g>
   <g id="patch_158">
    <path d="M 318.109704 273.312 
L 319.729954 273.312 
L 319.729954 77.139692 
L 318.109704 77.139692 
z
" clip-path="url(#pab4d2b2249)" style="fill: #1f77b4"/>
   </g>
   <g id="patch_159">
    <path d="M 319.729954 273.312 
L 321.350205 273.312 
L 321.350205 74.093538 
L 319.729954 74.093538 
z
" clip-path="url(#pab4d2b2249)" style="fill: #1f77b4"/>
   </g>
   <g id="patch_160">
    <path d="M 321.350205 273.312 
L 322.970455 273.312 
L 322.970455 85.668923 
L 321.350205 85.668923 
z
" clip-path="url(#pab4d2b2249)" style="fill: #1f77b4"/>
   </g>
   <g id="patch_161">
    <path d="M 322.970455 273.312 
L 324.590705 273.312 
L 324.590705 75.312 
L 322.970455 75.312 
z
" clip-path="url(#pab4d2b2249)" style="fill: #1f77b4"/>
   </g>
   <g id="patch_162">
    <path d="M 324.590705 273.312 
L 326.210955 273.312 
L 326.210955 74.093538 
L 324.590705 74.093538 
z
" clip-path="url(#pab4d2b2249)" style="fill: #1f77b4"/>
   </g>
   <g id="patch_163">
    <path d="M 326.210955 273.312 
L 327.831206 273.312 
L 327.831206 78.967385 
L 326.210955 78.967385 
z
" clip-path="url(#pab4d2b2249)" style="fill: #1f77b4"/>
   </g>
   <g id="patch_164">
    <path d="M 327.831206 273.312 
L 329.451456 273.312 
L 329.451456 90.542769 
L 327.831206 90.542769 
z
" clip-path="url(#pab4d2b2249)" style="fill: #1f77b4"/>
   </g>
   <g id="patch_165">
    <path d="M 329.451456 273.312 
L 331.071706 273.312 
L 331.071706 79.576615 
L 329.451456 79.576615 
z
" clip-path="url(#pab4d2b2249)" style="fill: #1f77b4"/>
   </g>
   <g id="patch_166">
    <path d="M 331.071706 273.312 
L 332.691956 273.312 
L 332.691956 78.967385 
L 331.071706 78.967385 
z
" clip-path="url(#pab4d2b2249)" style="fill: #1f77b4"/>
   </g>
   <g id="patch_167">
    <path d="M 332.691956 273.312 
L 334.312206 273.312 
L 334.312206 76.530462 
L 332.691956 76.530462 
z
" clip-path="url(#pab4d2b2249)" style="fill: #1f77b4"/>
   </g>
   <g id="patch_168">
    <path d="M 334.312206 273.312 
L 335.932457 273.312 
L 335.932457 69.219692 
L 334.312206 69.219692 
z
" clip-path="url(#pab4d2b2249)" style="fill: #1f77b4"/>
   </g>
   <g id="patch_169">
    <path d="M 335.932457 273.312 
L 337.552707 273.312 
L 337.552707 60.690462 
L 335.932457 60.690462 
z
" clip-path="url(#pab4d2b2249)" style="fill: #1f77b4"/>
   </g>
   <g id="patch_170">
    <path d="M 337.552707 273.312 
L 339.172957 273.312 
L 339.172957 88.105846 
L 337.552707 88.105846 
z
" clip-path="url(#pab4d2b2249)" style="fill: #1f77b4"/>
   </g>
   <g id="patch_171">
    <path d="M 339.172957 273.312 
L 340.793207 273.312 
L 340.793207 61.299692 
L 339.172957 61.299692 
z
" clip-path="url(#pab4d2b2249)" style="fill: #1f77b4"/>
   </g>
   <g id="patch_172">
    <path d="M 340.793207 273.312 
L 342.413458 273.312 
L 342.413458 64.345846 
L 340.793207 64.345846 
z
" clip-path="url(#pab4d2b2249)" style="fill: #1f77b4"/>
   </g>
   <g id="patch_173">
    <path d="M 342.413458 273.312 
L 344.033708 273.312 
L 344.033708 67.392 
L 342.413458 67.392 
z
" clip-path="url(#pab4d2b2249)" style="fill: #1f77b4"/>
   </g>
   <g id="patch_174">
    <path d="M 344.033708 273.312 
L 345.653958 273.312 
L 345.653958 71.656615 
L 344.033708 71.656615 
z
" clip-path="url(#pab4d2b2249)" style="fill: #1f77b4"/>
   </g>
   <g id="patch_175">
    <path d="M 345.653958 273.312 
L 347.274208 273.312 
L 347.274208 69.828923 
L 345.653958 69.828923 
z
" clip-path="url(#pab4d2b2249)" style="fill: #1f77b4"/>
   </g>
   <g id="patch_176">
    <path d="M 347.274208 273.312 
L 348.894459 273.312 
L 348.894459 60.081231 
L 347.274208 60.081231 
z
" clip-path="url(#pab4d2b2249)" style="fill: #1f77b4"/>
   </g>
   <g id="patch_177">
    <path d="M 348.894459 273.312 
L 350.514709 273.312 
L 350.514709 58.862769 
L 348.894459 58.862769 
z
" clip-path="url(#pab4d2b2249)" style="fill: #1f77b4"/>
   </g>
   <g id="patch_178">
    <path d="M 350.514709 273.312 
L 352.134959 273.312 
L 352.134959 61.299692 
L 350.514709 61.299692 
z
" clip-path="url(#pab4d2b2249)" style="fill: #1f77b4"/>
   </g>
   <g id="patch_179">
    <path d="M 352.134959 273.312 
L 353.755209 273.312 
L 353.755209 50.333538 
L 352.134959 50.333538 
z
" clip-path="url(#pab4d2b2249)" style="fill: #1f77b4"/>
   </g>
   <g id="patch_180">
    <path d="M 353.755209 273.312 
L 355.37546 273.312 
L 355.37546 40.585846 
L 353.755209 40.585846 
z
" clip-path="url(#pab4d2b2249)" style="fill: #1f77b4"/>
   </g>
   <g id="patch_181">
    <path d="M 355.37546 273.312 
L 356.99571 273.312 
L 356.99571 70.438154 
L 355.37546 70.438154 
z
" clip-path="url(#pab4d2b2249)" style="fill: #1f77b4"/>
   </g>
   <g id="patch_182">
    <path d="M 356.99571 273.312 
L 358.61596 273.312 
L 358.61596 65.564308 
L 356.99571 65.564308 
z
" clip-path="url(#pab4d2b2249)" style="fill: #1f77b4"/>
   </g>
   <g id="patch_183">
    <path d="M 358.61596 273.312 
L 360.23621 273.312 
L 360.23621 54.598154 
L 358.61596 54.598154 
z
" clip-path="url(#pab4d2b2249)" style="fill: #1f77b4"/>
   </g>
   <g id="patch_184">
    <path d="M 360.23621 273.312 
L 361.856461 273.312 
L 361.856461 47.896615 
L 360.23621 47.896615 
z
" clip-path="url(#pab4d2b2249)" style="fill: #1f77b4"/>
   </g>
   <g id="patch_185">
    <path d="M 361.856461 273.312 
L 363.476711 273.312 
L 363.476711 59.472 
L 361.856461 59.472 
z
" clip-path="url(#pab4d2b2249)" style="fill: #1f77b4"/>
   </g>
   <g id="patch_186">
    <path d="M 363.476711 273.312 
L 365.096961 273.312 
L 365.096961 60.081231 
L 363.476711 60.081231 
z
" clip-path="url(#pab4d2b2249)" style="fill: #1f77b4"/>
   </g>
   <g id="patch_187">
    <path d="M 365.096961 273.312 
L 366.717211 273.312 
L 366.717211 53.988923 
L 365.096961 53.988923 
z
" clip-path="url(#pab4d2b2249)" style="fill: #1f77b4"/>
   </g>
   <g id="patch_188">
    <path d="M 366.717211 273.312 
L 368.337462 273.312 
L 368.337462 44.850462 
L 366.717211 44.850462 
z
" clip-path="url(#pab4d2b2249)" style="fill: #1f77b4"/>
   </g>
   <g id="patch_189">
    <path d="M 368.337462 273.312 
L 369.957712 273.312 
L 369.957712 31.447385 
L 368.337462 31.447385 
z
" clip-path="url(#pab4d2b2249)" style="fill: #1f77b4"/>
   </g>
   <g id="patch_190">
    <path d="M 369.957712 273.312 
L 371.577962 273.312 
L 371.577962 47.287385 
L 369.957712 47.287385 
z
" clip-path="url(#pab4d2b2249)" style="fill: #1f77b4"/>
   </g>
   <g id="patch_191">
    <path d="M 371.577962 273.312 
L 373.198212 273.312 
L 373.198212 52.770462 
L 371.577962 52.770462 
z
" clip-path="url(#pab4d2b2249)" style="fill: #1f77b4"/>
   </g>
   <g id="patch_192">
    <path d="M 373.198212 273.312 
L 374.818463 273.312 
L 374.818463 38.148923 
L 373.198212 38.148923 
z
" clip-path="url(#pab4d2b2249)" style="fill: #1f77b4"/>
   </g>
   <g id="patch_193">
    <path d="M 374.818463 273.312 
L 376.438713 273.312 
L 376.438713 27.182769 
L 374.818463 27.182769 
z
" clip-path="url(#pab4d2b2249)" style="fill: #1f77b4"/>
   </g>
   <g id="patch_194">
    <path d="M 376.438713 273.312 
L 378.058963 273.312 
L 378.058963 35.712 
L 376.438713 35.712 
z
" clip-path="url(#pab4d2b2249)" style="fill: #1f77b4"/>
   </g>
   <g id="patch_195">
    <path d="M 378.058963 273.312 
L 379.679213 273.312 
L 379.679213 47.287385 
L 378.058963 47.287385 
z
" clip-path="url(#pab4d2b2249)" style="fill: #1f77b4"/>
   </g>
   <g id="patch_196">
    <path d="M 379.679213 273.312 
L 381.299464 273.312 
L 381.299464 66.782769 
L 379.679213 66.782769 
z
" clip-path="url(#pab4d2b2249)" style="fill: #1f77b4"/>
   </g>
   <g id="patch_197">
    <path d="M 381.299464 273.312 
L 382.919714 273.312 
L 382.919714 33.275077 
L 381.299464 33.275077 
z
" clip-path="url(#pab4d2b2249)" style="fill: #1f77b4"/>
   </g>
   <g id="patch_198">
    <path d="M 382.919714 273.312 
L 384.539964 273.312 
L 384.539964 51.552 
L 382.919714 51.552 
z
" clip-path="url(#pab4d2b2249)" style="fill: #1f77b4"/>
   </g>
   <g id="patch_199">
    <path d="M 384.539964 273.312 
L 386.160214 273.312 
L 386.160214 34.493538 
L 384.539964 34.493538 
z
" clip-path="url(#pab4d2b2249)" style="fill: #1f77b4"/>
   </g>
   <g id="patch_200">
    <path d="M 386.160214 273.312 
L 387.780465 273.312 
L 387.780465 32.056615 
L 386.160214 32.056615 
z
" clip-path="url(#pab4d2b2249)" style="fill: #1f77b4"/>
   </g>
   <g id="patch_201">
    <path d="M 387.780465 273.312 
L 389.400715 273.312 
L 389.400715 38.758154 
L 387.780465 38.758154 
z
" clip-path="url(#pab4d2b2249)" style="fill: #1f77b4"/>
   </g>
   <g id="patch_202">
    <path d="M 389.400715 273.312 
L 391.020965 273.312 
L 391.020965 19.872 
L 389.400715 19.872 
z
" clip-path="url(#pab4d2b2249)" style="fill: #1f77b4"/>
   </g>
   <g id="matplotlib.axis_1">
    <g id="xtick_1">
     <g id="line2d_1">
      <defs>
       <path id="m2e42410aa9" d="M 0 0 
L 0 3.5 
" style="stroke: #000000; stroke-width: 0.8"/>
      </defs>
      <g>
       <use xlink:href="#m2e42410aa9" x="66.376477" y="273.312" style="stroke: #000000; stroke-width: 0.8"/>
      </g>
     </g>
     <g id="text_1">
      <!-- 0.0 -->
      <g transform="translate(58.424915 287.910437)scale(0.1 -0.1)">
       <defs>
        <path id="DejaVuSans-30" d="M 2034 4250 
Q 1547 4250 1301 3770 
Q 1056 3291 1056 2328 
Q 1056 1369 1301 889 
Q 1547 409 2034 409 
Q 2525 409 2770 889 
Q 3016 1369 3016 2328 
Q 3016 3291 2770 3770 
Q 2525 4250 2034 4250 
z
M 2034 4750 
Q 2819 4750 3233 4129 
Q 3647 3509 3647 2328 
Q 3647 1150 3233 529 
Q 2819 -91 2034 -91 
Q 1250 -91 836 529 
Q 422 1150 422 2328 
Q 422 3509 836 4129 
Q 1250 4750 2034 4750 
z
" transform="scale(0.015625)"/>
        <path id="DejaVuSans-2e" d="M 684 794 
L 1344 794 
L 1344 0 
L 684 0 
L 684 794 
z
" transform="scale(0.015625)"/>
       </defs>
       <use xlink:href="#DejaVuSans-30"/>
       <use xlink:href="#DejaVuSans-2e" x="63.623047"/>
       <use xlink:href="#DejaVuSans-30" x="95.410156"/>
      </g>
     </g>
    </g>
    <g id="xtick_2">
     <g id="line2d_2">
      <g>
       <use xlink:href="#m2e42410aa9" x="131.307386" y="273.312" style="stroke: #000000; stroke-width: 0.8"/>
      </g>
     </g>
     <g id="text_2">
      <!-- 0.2 -->
      <g transform="translate(123.355824 287.910437)scale(0.1 -0.1)">
       <defs>
        <path id="DejaVuSans-32" d="M 1228 531 
L 3431 531 
L 3431 0 
L 469 0 
L 469 531 
Q 828 903 1448 1529 
Q 2069 2156 2228 2338 
Q 2531 2678 2651 2914 
Q 2772 3150 2772 3378 
Q 2772 3750 2511 3984 
Q 2250 4219 1831 4219 
Q 1534 4219 1204 4116 
Q 875 4013 500 3803 
L 500 4441 
Q 881 4594 1212 4672 
Q 1544 4750 1819 4750 
Q 2544 4750 2975 4387 
Q 3406 4025 3406 3419 
Q 3406 3131 3298 2873 
Q 3191 2616 2906 2266 
Q 2828 2175 2409 1742 
Q 1991 1309 1228 531 
z
" transform="scale(0.015625)"/>
       </defs>
       <use xlink:href="#DejaVuSans-30"/>
       <use xlink:href="#DejaVuSans-2e" x="63.623047"/>
       <use xlink:href="#DejaVuSans-32" x="95.410156"/>
      </g>
     </g>
    </g>
    <g id="xtick_3">
     <g id="line2d_3">
      <g>
       <use xlink:href="#m2e42410aa9" x="196.238295" y="273.312" style="stroke: #000000; stroke-width: 0.8"/>
      </g>
     </g>
     <g id="text_3">
      <!-- 0.4 -->
      <g transform="translate(188.286733 287.910437)scale(0.1 -0.1)">
       <defs>
        <path id="DejaVuSans-34" d="M 2419 4116 
L 825 1625 
L 2419 1625 
L 2419 4116 
z
M 2253 4666 
L 3047 4666 
L 3047 1625 
L 3713 1625 
L 3713 1100 
L 3047 1100 
L 3047 0 
L 2419 0 
L 2419 1100 
L 313 1100 
L 313 1709 
L 2253 4666 
z
" transform="scale(0.015625)"/>
       </defs>
       <use xlink:href="#DejaVuSans-30"/>
       <use xlink:href="#DejaVuSans-2e" x="63.623047"/>
       <use xlink:href="#DejaVuSans-34" x="95.410156"/>
      </g>
     </g>
    </g>
    <g id="xtick_4">
     <g id="line2d_4">
      <g>
       <use xlink:href="#m2e42410aa9" x="261.169205" y="273.312" style="stroke: #000000; stroke-width: 0.8"/>
      </g>
     </g>
     <g id="text_4">
      <!-- 0.6 -->
      <g transform="translate(253.217642 287.910437)scale(0.1 -0.1)">
       <defs>
        <path id="DejaVuSans-36" d="M 2113 2584 
Q 1688 2584 1439 2293 
Q 1191 2003 1191 1497 
Q 1191 994 1439 701 
Q 1688 409 2113 409 
Q 2538 409 2786 701 
Q 3034 994 3034 1497 
Q 3034 2003 2786 2293 
Q 2538 2584 2113 2584 
z
M 3366 4563 
L 3366 3988 
Q 3128 4100 2886 4159 
Q 2644 4219 2406 4219 
Q 1781 4219 1451 3797 
Q 1122 3375 1075 2522 
Q 1259 2794 1537 2939 
Q 1816 3084 2150 3084 
Q 2853 3084 3261 2657 
Q 3669 2231 3669 1497 
Q 3669 778 3244 343 
Q 2819 -91 2113 -91 
Q 1303 -91 875 529 
Q 447 1150 447 2328 
Q 447 3434 972 4092 
Q 1497 4750 2381 4750 
Q 2619 4750 2861 4703 
Q 3103 4656 3366 4563 
z
" transform="scale(0.015625)"/>
       </defs>
       <use xlink:href="#DejaVuSans-30"/>
       <use xlink:href="#DejaVuSans-2e" x="63.623047"/>
       <use xlink:href="#DejaVuSans-36" x="95.410156"/>
      </g>
     </g>
    </g>
    <g id="xtick_5">
     <g id="line2d_5">
      <g>
       <use xlink:href="#m2e42410aa9" x="326.100114" y="273.312" style="stroke: #000000; stroke-width: 0.8"/>
      </g>
     </g>
     <g id="text_5">
      <!-- 0.8 -->
      <g transform="translate(318.148551 287.910437)scale(0.1 -0.1)">
       <defs>
        <path id="DejaVuSans-38" d="M 2034 2216 
Q 1584 2216 1326 1975 
Q 1069 1734 1069 1313 
Q 1069 891 1326 650 
Q 1584 409 2034 409 
Q 2484 409 2743 651 
Q 3003 894 3003 1313 
Q 3003 1734 2745 1975 
Q 2488 2216 2034 2216 
z
M 1403 2484 
Q 997 2584 770 2862 
Q 544 3141 544 3541 
Q 544 4100 942 4425 
Q 1341 4750 2034 4750 
Q 2731 4750 3128 4425 
Q 3525 4100 3525 3541 
Q 3525 3141 3298 2862 
Q 3072 2584 2669 2484 
Q 3125 2378 3379 2068 
Q 3634 1759 3634 1313 
Q 3634 634 3220 271 
Q 2806 -91 2034 -91 
Q 1263 -91 848 271 
Q 434 634 434 1313 
Q 434 1759 690 2068 
Q 947 2378 1403 2484 
z
M 1172 3481 
Q 1172 3119 1398 2916 
Q 1625 2713 2034 2713 
Q 2441 2713 2670 2916 
Q 2900 3119 2900 3481 
Q 2900 3844 2670 4047 
Q 2441 4250 2034 4250 
Q 1625 4250 1398 4047 
Q 1172 3844 1172 3481 
z
" transform="scale(0.015625)"/>
       </defs>
       <use xlink:href="#DejaVuSans-30"/>
       <use xlink:href="#DejaVuSans-2e" x="63.623047"/>
       <use xlink:href="#DejaVuSans-38" x="95.410156"/>
      </g>
     </g>
    </g>
    <g id="xtick_6">
     <g id="line2d_6">
      <g>
       <use xlink:href="#m2e42410aa9" x="391.031023" y="273.312" style="stroke: #000000; stroke-width: 0.8"/>
      </g>
     </g>
     <g id="text_6">
      <!-- 1.0 -->
      <g transform="translate(383.07946 287.910437)scale(0.1 -0.1)">
       <defs>
        <path id="DejaVuSans-31" d="M 794 531 
L 1825 531 
L 1825 4091 
L 703 3866 
L 703 4441 
L 1819 4666 
L 2450 4666 
L 2450 531 
L 3481 531 
L 3481 0 
L 794 0 
L 794 531 
z
" transform="scale(0.015625)"/>
       </defs>
       <use xlink:href="#DejaVuSans-31"/>
       <use xlink:href="#DejaVuSans-2e" x="63.623047"/>
       <use xlink:href="#DejaVuSans-30" x="95.410156"/>
      </g>
     </g>
    </g>
    <g id="text_7">
     <!-- Propagation direction -->
     <g transform="translate(175.221719 301.588562)scale(0.1 -0.1)">
      <defs>
       <path id="DejaVuSans-50" d="M 1259 4147 
L 1259 2394 
L 2053 2394 
Q 2494 2394 2734 2622 
Q 2975 2850 2975 3272 
Q 2975 3691 2734 3919 
Q 2494 4147 2053 4147 
L 1259 4147 
z
M 628 4666 
L 2053 4666 
Q 2838 4666 3239 4311 
Q 3641 3956 3641 3272 
Q 3641 2581 3239 2228 
Q 2838 1875 2053 1875 
L 1259 1875 
L 1259 0 
L 628 0 
L 628 4666 
z
" transform="scale(0.015625)"/>
       <path id="DejaVuSans-72" d="M 2631 2963 
Q 2534 3019 2420 3045 
Q 2306 3072 2169 3072 
Q 1681 3072 1420 2755 
Q 1159 2438 1159 1844 
L 1159 0 
L 581 0 
L 581 3500 
L 1159 3500 
L 1159 2956 
Q 1341 3275 1631 3429 
Q 1922 3584 2338 3584 
Q 2397 3584 2469 3576 
Q 2541 3569 2628 3553 
L 2631 2963 
z
" transform="scale(0.015625)"/>
       <path id="DejaVuSans-6f" d="M 1959 3097 
Q 1497 3097 1228 2736 
Q 959 2375 959 1747 
Q 959 1119 1226 758 
Q 1494 397 1959 397 
Q 2419 397 2687 759 
Q 2956 1122 2956 1747 
Q 2956 2369 2687 2733 
Q 2419 3097 1959 3097 
z
M 1959 3584 
Q 2709 3584 3137 3096 
Q 3566 2609 3566 1747 
Q 3566 888 3137 398 
Q 2709 -91 1959 -91 
Q 1206 -91 779 398 
Q 353 888 353 1747 
Q 353 2609 779 3096 
Q 1206 3584 1959 3584 
z
" transform="scale(0.015625)"/>
       <path id="DejaVuSans-70" d="M 1159 525 
L 1159 -1331 
L 581 -1331 
L 581 3500 
L 1159 3500 
L 1159 2969 
Q 1341 3281 1617 3432 
Q 1894 3584 2278 3584 
Q 2916 3584 3314 3078 
Q 3713 2572 3713 1747 
Q 3713 922 3314 415 
Q 2916 -91 2278 -91 
Q 1894 -91 1617 61 
Q 1341 213 1159 525 
z
M 3116 1747 
Q 3116 2381 2855 2742 
Q 2594 3103 2138 3103 
Q 1681 3103 1420 2742 
Q 1159 2381 1159 1747 
Q 1159 1113 1420 752 
Q 1681 391 2138 391 
Q 2594 391 2855 752 
Q 3116 1113 3116 1747 
z
" transform="scale(0.015625)"/>
       <path id="DejaVuSans-61" d="M 2194 1759 
Q 1497 1759 1228 1600 
Q 959 1441 959 1056 
Q 959 750 1161 570 
Q 1363 391 1709 391 
Q 2188 391 2477 730 
Q 2766 1069 2766 1631 
L 2766 1759 
L 2194 1759 
z
M 3341 1997 
L 3341 0 
L 2766 0 
L 2766 531 
Q 2569 213 2275 61 
Q 1981 -91 1556 -91 
Q 1019 -91 701 211 
Q 384 513 384 1019 
Q 384 1609 779 1909 
Q 1175 2209 1959 2209 
L 2766 2209 
L 2766 2266 
Q 2766 2663 2505 2880 
Q 2244 3097 1772 3097 
Q 1472 3097 1187 3025 
Q 903 2953 641 2809 
L 641 3341 
Q 956 3463 1253 3523 
Q 1550 3584 1831 3584 
Q 2591 3584 2966 3190 
Q 3341 2797 3341 1997 
z
" transform="scale(0.015625)"/>
       <path id="DejaVuSans-67" d="M 2906 1791 
Q 2906 2416 2648 2759 
Q 2391 3103 1925 3103 
Q 1463 3103 1205 2759 
Q 947 2416 947 1791 
Q 947 1169 1205 825 
Q 1463 481 1925 481 
Q 2391 481 2648 825 
Q 2906 1169 2906 1791 
z
M 3481 434 
Q 3481 -459 3084 -895 
Q 2688 -1331 1869 -1331 
Q 1566 -1331 1297 -1286 
Q 1028 -1241 775 -1147 
L 775 -588 
Q 1028 -725 1275 -790 
Q 1522 -856 1778 -856 
Q 2344 -856 2625 -561 
Q 2906 -266 2906 331 
L 2906 616 
Q 2728 306 2450 153 
Q 2172 0 1784 0 
Q 1141 0 747 490 
Q 353 981 353 1791 
Q 353 2603 747 3093 
Q 1141 3584 1784 3584 
Q 2172 3584 2450 3431 
Q 2728 3278 2906 2969 
L 2906 3500 
L 3481 3500 
L 3481 434 
z
" transform="scale(0.015625)"/>
       <path id="DejaVuSans-74" d="M 1172 4494 
L 1172 3500 
L 2356 3500 
L 2356 3053 
L 1172 3053 
L 1172 1153 
Q 1172 725 1289 603 
Q 1406 481 1766 481 
L 2356 481 
L 2356 0 
L 1766 0 
Q 1100 0 847 248 
Q 594 497 594 1153 
L 594 3053 
L 172 3053 
L 172 3500 
L 594 3500 
L 594 4494 
L 1172 4494 
z
" transform="scale(0.015625)"/>
       <path id="DejaVuSans-69" d="M 603 3500 
L 1178 3500 
L 1178 0 
L 603 0 
L 603 3500 
z
M 603 4863 
L 1178 4863 
L 1178 4134 
L 603 4134 
L 603 4863 
z
" transform="scale(0.015625)"/>
       <path id="DejaVuSans-6e" d="M 3513 2113 
L 3513 0 
L 2938 0 
L 2938 2094 
Q 2938 2591 2744 2837 
Q 2550 3084 2163 3084 
Q 1697 3084 1428 2787 
Q 1159 2491 1159 1978 
L 1159 0 
L 581 0 
L 581 3500 
L 1159 3500 
L 1159 2956 
Q 1366 3272 1645 3428 
Q 1925 3584 2291 3584 
Q 2894 3584 3203 3211 
Q 3513 2838 3513 2113 
z
" transform="scale(0.015625)"/>
       <path id="DejaVuSans-20" transform="scale(0.015625)"/>
       <path id="DejaVuSans-64" d="M 2906 2969 
L 2906 4863 
L 3481 4863 
L 3481 0 
L 2906 0 
L 2906 525 
Q 2725 213 2448 61 
Q 2172 -91 1784 -91 
Q 1150 -91 751 415 
Q 353 922 353 1747 
Q 353 2572 751 3078 
Q 1150 3584 1784 3584 
Q 2172 3584 2448 3432 
Q 2725 3281 2906 2969 
z
M 947 1747 
Q 947 1113 1208 752 
Q 1469 391 1925 391 
Q 2381 391 2643 752 
Q 2906 1113 2906 1747 
Q 2906 2381 2643 2742 
Q 2381 3103 1925 3103 
Q 1469 3103 1208 2742 
Q 947 2381 947 1747 
z
" transform="scale(0.015625)"/>
       <path id="DejaVuSans-65" d="M 3597 1894 
L 3597 1613 
L 953 1613 
Q 991 1019 1311 708 
Q 1631 397 2203 397 
Q 2534 397 2845 478 
Q 3156 559 3463 722 
L 3463 178 
Q 3153 47 2828 -22 
Q 2503 -91 2169 -91 
Q 1331 -91 842 396 
Q 353 884 353 1716 
Q 353 2575 817 3079 
Q 1281 3584 2069 3584 
Q 2775 3584 3186 3129 
Q 3597 2675 3597 1894 
z
M 3022 2063 
Q 3016 2534 2758 2815 
Q 2500 3097 2075 3097 
Q 1594 3097 1305 2825 
Q 1016 2553 972 2059 
L 3022 2063 
z
" transform="scale(0.015625)"/>
       <path id="DejaVuSans-63" d="M 3122 3366 
L 3122 2828 
Q 2878 2963 2633 3030 
Q 2388 3097 2138 3097 
Q 1578 3097 1268 2742 
Q 959 2388 959 1747 
Q 959 1106 1268 751 
Q 1578 397 2138 397 
Q 2388 397 2633 464 
Q 2878 531 3122 666 
L 3122 134 
Q 2881 22 2623 -34 
Q 2366 -91 2075 -91 
Q 1284 -91 818 406 
Q 353 903 353 1747 
Q 353 2603 823 3093 
Q 1294 3584 2113 3584 
Q 2378 3584 2631 3529 
Q 2884 3475 3122 3366 
z
" transform="scale(0.015625)"/>
      </defs>
      <use xlink:href="#DejaVuSans-50"/>
      <use xlink:href="#DejaVuSans-72" x="58.552734"/>
      <use xlink:href="#DejaVuSans-6f" x="97.416016"/>
      <use xlink:href="#DejaVuSans-70" x="158.597656"/>
      <use xlink:href="#DejaVuSans-61" x="222.074219"/>
      <use xlink:href="#DejaVuSans-67" x="283.353516"/>
      <use xlink:href="#DejaVuSans-61" x="346.830078"/>
      <use xlink:href="#DejaVuSans-74" x="408.109375"/>
      <use xlink:href="#DejaVuSans-69" x="447.318359"/>
      <use xlink:href="#DejaVuSans-6f" x="475.101562"/>
      <use xlink:href="#DejaVuSans-6e" x="536.283203"/>
      <use xlink:href="#DejaVuSans-20" x="599.662109"/>
      <use xlink:href="#DejaVuSans-64" x="631.449219"/>
      <use xlink:href="#DejaVuSans-69" x="694.925781"/>
      <use xlink:href="#DejaVuSans-72" x="722.708984"/>
      <use xlink:href="#DejaVuSans-65" x="761.572266"/>
      <use xlink:href="#DejaVuSans-63" x="823.095703"/>
      <use xlink:href="#DejaVuSans-74" x="878.076172"/>
      <use xlink:href="#DejaVuSans-69" x="917.285156"/>
      <use xlink:href="#DejaVuSans-6f" x="945.068359"/>
      <use xlink:href="#DejaVuSans-6e" x="1006.25"/>
     </g>
    </g>
   </g>
   <g id="matplotlib.axis_2">
    <g id="ytick_1">
     <g id="line2d_7">
      <defs>
       <path id="m56d2e2053c" d="M 0 0 
L -3.5 0 
" style="stroke: #000000; stroke-width: 0.8"/>
      </defs>
      <g>
       <use xlink:href="#m56d2e2053c" x="50.14375" y="273.312" style="stroke: #000000; stroke-width: 0.8"/>
      </g>
     </g>
     <g id="text_8">
      <!-- 0.00 -->
      <g transform="translate(20.878125 277.111219)scale(0.1 -0.1)">
       <use xlink:href="#DejaVuSans-30"/>
       <use xlink:href="#DejaVuSans-2e" x="63.623047"/>
       <use xlink:href="#DejaVuSans-30" x="95.410156"/>
       <use xlink:href="#DejaVuSans-30" x="159.033203"/>
      </g>
     </g>
    </g>
    <g id="ytick_2">
     <g id="line2d_8">
      <g>
       <use xlink:href="#m56d2e2053c" x="50.14375" y="242.90718" style="stroke: #000000; stroke-width: 0.8"/>
      </g>
     </g>
     <g id="text_9">
      <!-- 0.25 -->
      <g transform="translate(20.878125 246.706399)scale(0.1 -0.1)">
       <defs>
        <path id="DejaVuSans-35" d="M 691 4666 
L 3169 4666 
L 3169 4134 
L 1269 4134 
L 1269 2991 
Q 1406 3038 1543 3061 
Q 1681 3084 1819 3084 
Q 2600 3084 3056 2656 
Q 3513 2228 3513 1497 
Q 3513 744 3044 326 
Q 2575 -91 1722 -91 
Q 1428 -91 1123 -41 
Q 819 9 494 109 
L 494 744 
Q 775 591 1075 516 
Q 1375 441 1709 441 
Q 2250 441 2565 725 
Q 2881 1009 2881 1497 
Q 2881 1984 2565 2268 
Q 2250 2553 1709 2553 
Q 1456 2553 1204 2497 
Q 953 2441 691 2322 
L 691 4666 
z
" transform="scale(0.015625)"/>
       </defs>
       <use xlink:href="#DejaVuSans-30"/>
       <use xlink:href="#DejaVuSans-2e" x="63.623047"/>
       <use xlink:href="#DejaVuSans-32" x="95.410156"/>
       <use xlink:href="#DejaVuSans-35" x="159.033203"/>
      </g>
     </g>
    </g>
    <g id="ytick_3">
     <g id="line2d_9">
      <g>
       <use xlink:href="#m56d2e2053c" x="50.14375" y="212.50236" style="stroke: #000000; stroke-width: 0.8"/>
      </g>
     </g>
     <g id="text_10">
      <!-- 0.50 -->
      <g transform="translate(20.878125 216.301579)scale(0.1 -0.1)">
       <use xlink:href="#DejaVuSans-30"/>
       <use xlink:href="#DejaVuSans-2e" x="63.623047"/>
       <use xlink:href="#DejaVuSans-35" x="95.410156"/>
       <use xlink:href="#DejaVuSans-30" x="159.033203"/>
      </g>
     </g>
    </g>
    <g id="ytick_4">
     <g id="line2d_10">
      <g>
       <use xlink:href="#m56d2e2053c" x="50.14375" y="182.09754" style="stroke: #000000; stroke-width: 0.8"/>
      </g>
     </g>
     <g id="text_11">
      <!-- 0.75 -->
      <g transform="translate(20.878125 185.896759)scale(0.1 -0.1)">
       <defs>
        <path id="DejaVuSans-37" d="M 525 4666 
L 3525 4666 
L 3525 4397 
L 1831 0 
L 1172 0 
L 2766 4134 
L 525 4134 
L 525 4666 
z
" transform="scale(0.015625)"/>
       </defs>
       <use xlink:href="#DejaVuSans-30"/>
       <use xlink:href="#DejaVuSans-2e" x="63.623047"/>
       <use xlink:href="#DejaVuSans-37" x="95.410156"/>
       <use xlink:href="#DejaVuSans-35" x="159.033203"/>
      </g>
     </g>
    </g>
    <g id="ytick_5">
     <g id="line2d_11">
      <g>
       <use xlink:href="#m56d2e2053c" x="50.14375" y="151.69272" style="stroke: #000000; stroke-width: 0.8"/>
      </g>
     </g>
     <g id="text_12">
      <!-- 1.00 -->
      <g transform="translate(20.878125 155.491939)scale(0.1 -0.1)">
       <use xlink:href="#DejaVuSans-31"/>
       <use xlink:href="#DejaVuSans-2e" x="63.623047"/>
       <use xlink:href="#DejaVuSans-30" x="95.410156"/>
       <use xlink:href="#DejaVuSans-30" x="159.033203"/>
      </g>
     </g>
    </g>
    <g id="ytick_6">
     <g id="line2d_12">
      <g>
       <use xlink:href="#m56d2e2053c" x="50.14375" y="121.2879" style="stroke: #000000; stroke-width: 0.8"/>
      </g>
     </g>
     <g id="text_13">
      <!-- 1.25 -->
      <g transform="translate(20.878125 125.087119)scale(0.1 -0.1)">
       <use xlink:href="#DejaVuSans-31"/>
       <use xlink:href="#DejaVuSans-2e" x="63.623047"/>
       <use xlink:href="#DejaVuSans-32" x="95.410156"/>
       <use xlink:href="#DejaVuSans-35" x="159.033203"/>
      </g>
     </g>
    </g>
    <g id="ytick_7">
     <g id="line2d_13">
      <g>
       <use xlink:href="#m56d2e2053c" x="50.14375" y="90.88308" style="stroke: #000000; stroke-width: 0.8"/>
      </g>
     </g>
     <g id="text_14">
      <!-- 1.50 -->
      <g transform="translate(20.878125 94.682299)scale(0.1 -0.1)">
       <use xlink:href="#DejaVuSans-31"/>
       <use xlink:href="#DejaVuSans-2e" x="63.623047"/>
       <use xlink:href="#DejaVuSans-35" x="95.410156"/>
       <use xlink:href="#DejaVuSans-30" x="159.033203"/>
      </g>
     </g>
    </g>
    <g id="ytick_8">
     <g id="line2d_14">
      <g>
       <use xlink:href="#m56d2e2053c" x="50.14375" y="60.47826" style="stroke: #000000; stroke-width: 0.8"/>
      </g>
     </g>
     <g id="text_15">
      <!-- 1.75 -->
      <g transform="translate(20.878125 64.277479)scale(0.1 -0.1)">
       <use xlink:href="#DejaVuSans-31"/>
       <use xlink:href="#DejaVuSans-2e" x="63.623047"/>
       <use xlink:href="#DejaVuSans-37" x="95.410156"/>
       <use xlink:href="#DejaVuSans-35" x="159.033203"/>
      </g>
     </g>
    </g>
    <g id="ytick_9">
     <g id="line2d_15">
      <g>
       <use xlink:href="#m56d2e2053c" x="50.14375" y="30.07344" style="stroke: #000000; stroke-width: 0.8"/>
      </g>
     </g>
     <g id="text_16">
      <!-- 2.00 -->
      <g transform="translate(20.878125 33.872659)scale(0.1 -0.1)">
       <use xlink:href="#DejaVuSans-32"/>
       <use xlink:href="#DejaVuSans-2e" x="63.623047"/>
       <use xlink:href="#DejaVuSans-30" x="95.410156"/>
       <use xlink:href="#DejaVuSans-30" x="159.033203"/>
      </g>
     </g>
    </g>
    <g id="text_17">
     <!-- Probability density -->
     <g transform="translate(14.798438 186.606781)rotate(-90)scale(0.1 -0.1)">
      <defs>
       <path id="DejaVuSans-62" d="M 3116 1747 
Q 3116 2381 2855 2742 
Q 2594 3103 2138 3103 
Q 1681 3103 1420 2742 
Q 1159 2381 1159 1747 
Q 1159 1113 1420 752 
Q 1681 391 2138 391 
Q 2594 391 2855 752 
Q 3116 1113 3116 1747 
z
M 1159 2969 
Q 1341 3281 1617 3432 
Q 1894 3584 2278 3584 
Q 2916 3584 3314 3078 
Q 3713 2572 3713 1747 
Q 3713 922 3314 415 
Q 2916 -91 2278 -91 
Q 1894 -91 1617 61 
Q 1341 213 1159 525 
L 1159 0 
L 581 0 
L 581 4863 
L 1159 4863 
L 1159 2969 
z
" transform="scale(0.015625)"/>
       <path id="DejaVuSans-6c" d="M 603 4863 
L 1178 4863 
L 1178 0 
L 603 0 
L 603 4863 
z
" transform="scale(0.015625)"/>
       <path id="DejaVuSans-79" d="M 2059 -325 
Q 1816 -950 1584 -1140 
Q 1353 -1331 966 -1331 
L 506 -1331 
L 506 -850 
L 844 -850 
Q 1081 -850 1212 -737 
Q 1344 -625 1503 -206 
L 1606 56 
L 191 3500 
L 800 3500 
L 1894 763 
L 2988 3500 
L 3597 3500 
L 2059 -325 
z
" transform="scale(0.015625)"/>
       <path id="DejaVuSans-73" d="M 2834 3397 
L 2834 2853 
Q 2591 2978 2328 3040 
Q 2066 3103 1784 3103 
Q 1356 3103 1142 2972 
Q 928 2841 928 2578 
Q 928 2378 1081 2264 
Q 1234 2150 1697 2047 
L 1894 2003 
Q 2506 1872 2764 1633 
Q 3022 1394 3022 966 
Q 3022 478 2636 193 
Q 2250 -91 1575 -91 
Q 1294 -91 989 -36 
Q 684 19 347 128 
L 347 722 
Q 666 556 975 473 
Q 1284 391 1588 391 
Q 1994 391 2212 530 
Q 2431 669 2431 922 
Q 2431 1156 2273 1281 
Q 2116 1406 1581 1522 
L 1381 1569 
Q 847 1681 609 1914 
Q 372 2147 372 2553 
Q 372 3047 722 3315 
Q 1072 3584 1716 3584 
Q 2034 3584 2315 3537 
Q 2597 3491 2834 3397 
z
" transform="scale(0.015625)"/>
      </defs>
      <use xlink:href="#DejaVuSans-50"/>
      <use xlink:href="#DejaVuSans-72" x="58.552734"/>
      <use xlink:href="#DejaVuSans-6f" x="97.416016"/>
      <use xlink:href="#DejaVuSans-62" x="158.597656"/>
      <use xlink:href="#DejaVuSans-61" x="222.074219"/>
      <use xlink:href="#DejaVuSans-62" x="283.353516"/>
      <use xlink:href="#DejaVuSans-69" x="346.830078"/>
      <use xlink:href="#DejaVuSans-6c" x="374.613281"/>
      <use xlink:href="#DejaVuSans-69" x="402.396484"/>
      <use xlink:href="#DejaVuSans-74" x="430.179688"/>
      <use xlink:href="#DejaVuSans-79" x="469.388672"/>
      <use xlink:href="#DejaVuSans-20" x="528.568359"/>
      <use xlink:href="#DejaVuSans-64" x="560.355469"/>
      <use xlink:href="#DejaVuSans-65" x="623.832031"/>
      <use xlink:href="#DejaVuSans-6e" x="685.355469"/>
      <use xlink:href="#DejaVuSans-73" x="748.734375"/>
      <use xlink:href="#DejaVuSans-69" x="800.833984"/>
      <use xlink:href="#DejaVuSans-74" x="828.617188"/>
      <use xlink:href="#DejaVuSans-79" x="867.826172"/>
     </g>
    </g>
   </g>
   <g id="line2d_16">
    <path d="M 66.376477 273.312 
L 391.031023 30.07344 
L 391.031023 30.07344 
" clip-path="url(#pab4d2b2249)" style="fill: none; stroke: #ff7f0e; stroke-width: 1.5; stroke-linecap: square"/>
   </g>
   <g id="patch_203">
    <path d="M 50.14375 273.312 
L 50.14375 7.2 
" style="fill: none; stroke: #000000; stroke-width: 0.8; stroke-linejoin: miter; stroke-linecap: square"/>
   </g>
   <g id="patch_204">
    <path d="M 407.26375 273.312 
L 407.26375 7.2 
" style="fill: none; stroke: #000000; stroke-width: 0.8; stroke-linejoin: miter; stroke-linecap: square"/>
   </g>
   <g id="patch_205">
    <path d="M 50.14375 273.312 
L 407.26375 273.312 
" style="fill: none; stroke: #000000; stroke-width: 0.8; stroke-linejoin: miter; stroke-linecap: square"/>
   </g>
   <g id="patch_206">
    <path d="M 50.14375 7.2 
L 407.26375 7.2 
" style="fill: none; stroke: #000000; stroke-width: 0.8; stroke-linejoin: miter; stroke-linecap: square"/>
   </g>
  </g>
 </g>
 <defs>
  <clipPath id="pab4d2b2249">
   <rect x="50.14375" y="7.2" width="357.12" height="266.112"/>
  </clipPath>
 </defs>
</svg>
