<?xml version="1.0" encoding="utf-8" standalone="no"?>
<!DOCTYPE svg PUBLIC "-//W3C//DTD SVG 1.1//EN"
  "http://www.w3.org/Graphics/SVG/1.1/DTD/svg11.dtd">
<svg xmlns:xlink="http://www.w3.org/1999/xlink" width="408.10125pt" height="310.86825pt" viewBox="0 0 408.10125 310.86825" xmlns="http://www.w3.org/2000/svg" version="1.1">
 <metadata>
  <rdf:RDF xmlns:dc="http://purl.org/dc/elements/1.1/" xmlns:cc="http://creativecommons.org/ns#" xmlns:rdf="http://www.w3.org/1999/02/22-rdf-syntax-ns#">
   <cc:Work>
    <dc:type rdf:resource="http://purl.org/dc/dcmitype/StillImage"/>
    <dc:date>2022-04-07T14:43:31.326839</dc:date>
    <dc:format>image/svg+xml</dc:format>
    <dc:creator>
     <cc:Agent>
      <dc:title>Matplotlib v3.5.1, https://matplotlib.org/</dc:title>
     </cc:Agent>
    </dc:creator>
   </cc:Work>
  </rdf:RDF>
 </metadata>
 <defs>
  <style type="text/css">*{stroke-linejoin: round; stroke-linecap: butt}</style>
 </defs>
 <g id="figure_1">
  <g id="patch_1">
   <path d="M 0 310.86825 
L 408.10125 310.86825 
L 408.10125 0 
L 0 0 
z
" style="fill: #ffffff"/>
  </g>
  <g id="axes_1">
   <g id="patch_2">
    <path d="M 43.78125 273.312 
L 400.90125 273.312 
L 400.90125 7.2 
L 43.78125 7.2 
z
" style="fill: #ffffff"/>
   </g>
   <g id="patch_3">
    <path d="M 61.640863 273.312 
L 63.254109 273.312 
L 63.254109 268.109419 
L 61.640863 268.109419 
z
" clip-path="url(#p37897d8ff3)" style="fill: #1f77b4"/>
   </g>
   <g id="patch_4">
    <path d="M 63.254109 273.312 
L 64.867355 273.312 
L 64.867355 259.19071 
L 63.254109 259.19071 
z
" clip-path="url(#p37897d8ff3)" style="fill: #1f77b4"/>
   </g>
   <g id="patch_5">
    <path d="M 64.867355 273.312 
L 66.480601 273.312 
L 66.480601 265.136516 
L 64.867355 265.136516 
z
" clip-path="url(#p37897d8ff3)" style="fill: #1f77b4"/>
   </g>
   <g id="patch_6">
    <path d="M 66.480601 273.312 
L 68.093847 273.312 
L 68.093847 253.988129 
L 66.480601 253.988129 
z
" clip-path="url(#p37897d8ff3)" style="fill: #1f77b4"/>
   </g>
   <g id="patch_7">
    <path d="M 68.093847 273.312 
L 69.707093 273.312 
L 69.707093 251.015226 
L 68.093847 251.015226 
z
" clip-path="url(#p37897d8ff3)" style="fill: #1f77b4"/>
   </g>
   <g id="patch_8">
    <path d="M 69.707093 273.312 
L 71.320339 273.312 
L 71.320339 250.272 
L 69.707093 250.272 
z
" clip-path="url(#p37897d8ff3)" style="fill: #1f77b4"/>
   </g>
   <g id="patch_9">
    <path d="M 71.320339 273.312 
L 72.933586 273.312 
L 72.933586 242.096516 
L 71.320339 242.096516 
z
" clip-path="url(#p37897d8ff3)" style="fill: #1f77b4"/>
   </g>
   <g id="patch_10">
    <path d="M 72.933586 273.312 
L 74.546832 273.312 
L 74.546832 239.123613 
L 72.933586 239.123613 
z
" clip-path="url(#p37897d8ff3)" style="fill: #1f77b4"/>
   </g>
   <g id="patch_11">
    <path d="M 74.546832 273.312 
L 76.160078 273.312 
L 76.160078 239.123613 
L 74.546832 239.123613 
z
" clip-path="url(#p37897d8ff3)" style="fill: #1f77b4"/>
   </g>
   <g id="patch_12">
    <path d="M 76.160078 273.312 
L 77.773324 273.312 
L 77.773324 230.948129 
L 76.160078 230.948129 
z
" clip-path="url(#p37897d8ff3)" style="fill: #1f77b4"/>
   </g>
   <g id="patch_13">
    <path d="M 77.773324 273.312 
L 79.38657 273.312 
L 79.38657 233.921032 
L 77.773324 233.921032 
z
" clip-path="url(#p37897d8ff3)" style="fill: #1f77b4"/>
   </g>
   <g id="patch_14">
    <path d="M 79.38657 273.312 
L 80.999816 273.312 
L 80.999816 230.948129 
L 79.38657 230.948129 
z
" clip-path="url(#p37897d8ff3)" style="fill: #1f77b4"/>
   </g>
   <g id="patch_15">
    <path d="M 80.999816 273.312 
L 82.613062 273.312 
L 82.613062 226.488774 
L 80.999816 226.488774 
z
" clip-path="url(#p37897d8ff3)" style="fill: #1f77b4"/>
   </g>
   <g id="patch_16">
    <path d="M 82.613062 273.312 
L 84.226309 273.312 
L 84.226309 223.515871 
L 82.613062 223.515871 
z
" clip-path="url(#p37897d8ff3)" style="fill: #1f77b4"/>
   </g>
   <g id="patch_17">
    <path d="M 84.226309 273.312 
L 85.839555 273.312 
L 85.839555 211.624258 
L 84.226309 211.624258 
z
" clip-path="url(#p37897d8ff3)" style="fill: #1f77b4"/>
   </g>
   <g id="patch_18">
    <path d="M 85.839555 273.312 
L 87.452801 273.312 
L 87.452801 214.597161 
L 85.839555 214.597161 
z
" clip-path="url(#p37897d8ff3)" style="fill: #1f77b4"/>
   </g>
   <g id="patch_19">
    <path d="M 87.452801 273.312 
L 89.066047 273.312 
L 89.066047 214.597161 
L 87.452801 214.597161 
z
" clip-path="url(#p37897d8ff3)" style="fill: #1f77b4"/>
   </g>
   <g id="patch_20">
    <path d="M 89.066047 273.312 
L 90.679293 273.312 
L 90.679293 212.367484 
L 89.066047 212.367484 
z
" clip-path="url(#p37897d8ff3)" style="fill: #1f77b4"/>
   </g>
   <g id="patch_21">
    <path d="M 90.679293 273.312 
L 92.292539 273.312 
L 92.292539 209.394581 
L 90.679293 209.394581 
z
" clip-path="url(#p37897d8ff3)" style="fill: #1f77b4"/>
   </g>
   <g id="patch_22">
    <path d="M 92.292539 273.312 
L 93.905785 273.312 
L 93.905785 189.327484 
L 92.292539 189.327484 
z
" clip-path="url(#p37897d8ff3)" style="fill: #1f77b4"/>
   </g>
   <g id="patch_23">
    <path d="M 93.905785 273.312 
L 95.519032 273.312 
L 95.519032 196.759742 
L 93.905785 196.759742 
z
" clip-path="url(#p37897d8ff3)" style="fill: #1f77b4"/>
   </g>
   <g id="patch_24">
    <path d="M 95.519032 273.312 
L 97.132278 273.312 
L 97.132278 199.732645 
L 95.519032 199.732645 
z
" clip-path="url(#p37897d8ff3)" style="fill: #1f77b4"/>
   </g>
   <g id="patch_25">
    <path d="M 97.132278 273.312 
L 98.745524 273.312 
L 98.745524 193.786839 
L 97.132278 193.786839 
z
" clip-path="url(#p37897d8ff3)" style="fill: #1f77b4"/>
   </g>
   <g id="patch_26">
    <path d="M 98.745524 273.312 
L 100.35877 273.312 
L 100.35877 175.949419 
L 98.745524 175.949419 
z
" clip-path="url(#p37897d8ff3)" style="fill: #1f77b4"/>
   </g>
   <g id="patch_27">
    <path d="M 100.35877 273.312 
L 101.972016 273.312 
L 101.972016 190.07071 
L 100.35877 190.07071 
z
" clip-path="url(#p37897d8ff3)" style="fill: #1f77b4"/>
   </g>
   <g id="patch_28">
    <path d="M 101.972016 273.312 
L 103.585262 273.312 
L 103.585262 196.016516 
L 101.972016 196.016516 
z
" clip-path="url(#p37897d8ff3)" style="fill: #1f77b4"/>
   </g>
   <g id="patch_29">
    <path d="M 103.585262 273.312 
L 105.198508 273.312 
L 105.198508 174.462968 
L 103.585262 174.462968 
z
" clip-path="url(#p37897d8ff3)" style="fill: #1f77b4"/>
   </g>
   <g id="patch_30">
    <path d="M 105.198508 273.312 
L 106.811755 273.312 
L 106.811755 174.462968 
L 105.198508 174.462968 
z
" clip-path="url(#p37897d8ff3)" style="fill: #1f77b4"/>
   </g>
   <g id="patch_31">
    <path d="M 106.811755 273.312 
L 108.425001 273.312 
L 108.425001 172.976516 
L 106.811755 172.976516 
z
" clip-path="url(#p37897d8ff3)" style="fill: #1f77b4"/>
   </g>
   <g id="patch_32">
    <path d="M 108.425001 273.312 
L 110.038247 273.312 
L 110.038247 170.746839 
L 108.425001 170.746839 
z
" clip-path="url(#p37897d8ff3)" style="fill: #1f77b4"/>
   </g>
   <g id="patch_33">
    <path d="M 110.038247 273.312 
L 111.651493 273.312 
L 111.651493 160.341677 
L 110.038247 160.341677 
z
" clip-path="url(#p37897d8ff3)" style="fill: #1f77b4"/>
   </g>
   <g id="patch_34">
    <path d="M 111.651493 273.312 
L 113.264739 273.312 
L 113.264739 189.327484 
L 111.651493 189.327484 
z
" clip-path="url(#p37897d8ff3)" style="fill: #1f77b4"/>
   </g>
   <g id="patch_35">
    <path d="M 113.264739 273.312 
L 114.877985 273.312 
L 114.877985 158.855226 
L 113.264739 158.855226 
z
" clip-path="url(#p37897d8ff3)" style="fill: #1f77b4"/>
   </g>
   <g id="patch_36">
    <path d="M 114.877985 273.312 
L 116.491231 273.312 
L 116.491231 158.855226 
L 114.877985 158.855226 
z
" clip-path="url(#p37897d8ff3)" style="fill: #1f77b4"/>
   </g>
   <g id="patch_37">
    <path d="M 116.491231 273.312 
L 118.104478 273.312 
L 118.104478 150.679742 
L 116.491231 150.679742 
z
" clip-path="url(#p37897d8ff3)" style="fill: #1f77b4"/>
   </g>
   <g id="patch_38">
    <path d="M 118.104478 273.312 
L 119.717724 273.312 
L 119.717724 143.247484 
L 118.104478 143.247484 
z
" clip-path="url(#p37897d8ff3)" style="fill: #1f77b4"/>
   </g>
   <g id="patch_39">
    <path d="M 119.717724 273.312 
L 121.33097 273.312 
L 121.33097 147.706839 
L 119.717724 147.706839 
z
" clip-path="url(#p37897d8ff3)" style="fill: #1f77b4"/>
   </g>
   <g id="patch_40">
    <path d="M 121.33097 273.312 
L 122.944216 273.312 
L 122.944216 136.558452 
L 121.33097 136.558452 
z
" clip-path="url(#p37897d8ff3)" style="fill: #1f77b4"/>
   </g>
   <g id="patch_41">
    <path d="M 122.944216 273.312 
L 124.557462 273.312 
L 124.557462 142.504258 
L 122.944216 142.504258 
z
" clip-path="url(#p37897d8ff3)" style="fill: #1f77b4"/>
   </g>
   <g id="patch_42">
    <path d="M 124.557462 273.312 
L 126.170708 273.312 
L 126.170708 126.15329 
L 124.557462 126.15329 
z
" clip-path="url(#p37897d8ff3)" style="fill: #1f77b4"/>
   </g>
   <g id="patch_43">
    <path d="M 126.170708 273.312 
L 127.783954 273.312 
L 127.783954 138.044903 
L 126.170708 138.044903 
z
" clip-path="url(#p37897d8ff3)" style="fill: #1f77b4"/>
   </g>
   <g id="patch_44">
    <path d="M 127.783954 273.312 
L 129.397201 273.312 
L 129.397201 116.491355 
L 127.783954 116.491355 
z
" clip-path="url(#p37897d8ff3)" style="fill: #1f77b4"/>
   </g>
   <g id="patch_45">
    <path d="M 129.397201 273.312 
L 131.010447 273.312 
L 131.010447 131.355871 
L 129.397201 131.355871 
z
" clip-path="url(#p37897d8ff3)" style="fill: #1f77b4"/>
   </g>
   <g id="patch_46">
    <path d="M 131.010447 273.312 
L 132.623693 273.312 
L 132.623693 129.869419 
L 131.010447 129.869419 
z
" clip-path="url(#p37897d8ff3)" style="fill: #1f77b4"/>
   </g>
   <g id="patch_47">
    <path d="M 132.623693 273.312 
L 134.236939 273.312 
L 134.236939 126.896516 
L 132.623693 126.896516 
z
" clip-path="url(#p37897d8ff3)" style="fill: #1f77b4"/>
   </g>
   <g id="patch_48">
    <path d="M 134.236939 273.312 
L 135.850185 273.312 
L 135.850185 109.059097 
L 134.236939 109.059097 
z
" clip-path="url(#p37897d8ff3)" style="fill: #1f77b4"/>
   </g>
   <g id="patch_49">
    <path d="M 135.850185 273.312 
L 137.463431 273.312 
L 137.463431 111.288774 
L 135.850185 111.288774 
z
" clip-path="url(#p37897d8ff3)" style="fill: #1f77b4"/>
   </g>
   <g id="patch_50">
    <path d="M 137.463431 273.312 
L 139.076677 273.312 
L 139.076677 107.572645 
L 137.463431 107.572645 
z
" clip-path="url(#p37897d8ff3)" style="fill: #1f77b4"/>
   </g>
   <g id="patch_51">
    <path d="M 139.076677 273.312 
L 140.689924 273.312 
L 140.689924 107.572645 
L 139.076677 107.572645 
z
" clip-path="url(#p37897d8ff3)" style="fill: #1f77b4"/>
   </g>
   <g id="patch_52">
    <path d="M 140.689924 273.312 
L 142.30317 273.312 
L 142.30317 113.518452 
L 140.689924 113.518452 
z
" clip-path="url(#p37897d8ff3)" style="fill: #1f77b4"/>
   </g>
   <g id="patch_53">
    <path d="M 142.30317 273.312 
L 143.916416 273.312 
L 143.916416 120.95071 
L 142.30317 120.95071 
z
" clip-path="url(#p37897d8ff3)" style="fill: #1f77b4"/>
   </g>
   <g id="patch_54">
    <path d="M 143.916416 273.312 
L 145.529662 273.312 
L 145.529662 97.167484 
L 143.916416 97.167484 
z
" clip-path="url(#p37897d8ff3)" style="fill: #1f77b4"/>
   </g>
   <g id="patch_55">
    <path d="M 145.529662 273.312 
L 147.142908 273.312 
L 147.142908 110.545548 
L 145.529662 110.545548 
z
" clip-path="url(#p37897d8ff3)" style="fill: #1f77b4"/>
   </g>
   <g id="patch_56">
    <path d="M 147.142908 273.312 
L 148.756154 273.312 
L 148.756154 104.599742 
L 147.142908 104.599742 
z
" clip-path="url(#p37897d8ff3)" style="fill: #1f77b4"/>
   </g>
   <g id="patch_57">
    <path d="M 148.756154 273.312 
L 150.3694 273.312 
L 150.3694 103.11329 
L 148.756154 103.11329 
z
" clip-path="url(#p37897d8ff3)" style="fill: #1f77b4"/>
   </g>
   <g id="patch_58">
    <path d="M 150.3694 273.312 
L 151.982647 273.312 
L 151.982647 85.275871 
L 150.3694 85.275871 
z
" clip-path="url(#p37897d8ff3)" style="fill: #1f77b4"/>
   </g>
   <g id="patch_59">
    <path d="M 151.982647 273.312 
L 153.595893 273.312 
L 153.595893 102.370065 
L 151.982647 102.370065 
z
" clip-path="url(#p37897d8ff3)" style="fill: #1f77b4"/>
   </g>
   <g id="patch_60">
    <path d="M 153.595893 273.312 
L 155.209139 273.312 
L 155.209139 92.708129 
L 153.595893 92.708129 
z
" clip-path="url(#p37897d8ff3)" style="fill: #1f77b4"/>
   </g>
   <g id="patch_61">
    <path d="M 155.209139 273.312 
L 156.822385 273.312 
L 156.822385 103.11329 
L 155.209139 103.11329 
z
" clip-path="url(#p37897d8ff3)" style="fill: #1f77b4"/>
   </g>
   <g id="patch_62">
    <path d="M 156.822385 273.312 
L 158.435631 273.312 
L 158.435631 86.019097 
L 156.822385 86.019097 
z
" clip-path="url(#p37897d8ff3)" style="fill: #1f77b4"/>
   </g>
   <g id="patch_63">
    <path d="M 158.435631 273.312 
L 160.048877 273.312 
L 160.048877 62.979097 
L 158.435631 62.979097 
z
" clip-path="url(#p37897d8ff3)" style="fill: #1f77b4"/>
   </g>
   <g id="patch_64">
    <path d="M 160.048877 273.312 
L 161.662123 273.312 
L 161.662123 72.641032 
L 160.048877 72.641032 
z
" clip-path="url(#p37897d8ff3)" style="fill: #1f77b4"/>
   </g>
   <g id="patch_65">
    <path d="M 161.662123 273.312 
L 163.275369 273.312 
L 163.275369 71.154581 
L 161.662123 71.154581 
z
" clip-path="url(#p37897d8ff3)" style="fill: #1f77b4"/>
   </g>
   <g id="patch_66">
    <path d="M 163.275369 273.312 
L 164.888616 273.312 
L 164.888616 74.87071 
L 163.275369 74.87071 
z
" clip-path="url(#p37897d8ff3)" style="fill: #1f77b4"/>
   </g>
   <g id="patch_67">
    <path d="M 164.888616 273.312 
L 166.501862 273.312 
L 166.501862 84.532645 
L 164.888616 84.532645 
z
" clip-path="url(#p37897d8ff3)" style="fill: #1f77b4"/>
   </g>
   <g id="patch_68">
    <path d="M 166.501862 273.312 
L 168.115108 273.312 
L 168.115108 71.897806 
L 166.501862 71.897806 
z
" clip-path="url(#p37897d8ff3)" style="fill: #1f77b4"/>
   </g>
   <g id="patch_69">
    <path d="M 168.115108 273.312 
L 169.728354 273.312 
L 169.728354 68.924903 
L 168.115108 68.924903 
z
" clip-path="url(#p37897d8ff3)" style="fill: #1f77b4"/>
   </g>
   <g id="patch_70">
    <path d="M 169.728354 273.312 
L 171.3416 273.312 
L 171.3416 92.708129 
L 169.728354 92.708129 
z
" clip-path="url(#p37897d8ff3)" style="fill: #1f77b4"/>
   </g>
   <g id="patch_71">
    <path d="M 171.3416 273.312 
L 172.954846 273.312 
L 172.954846 69.668129 
L 171.3416 69.668129 
z
" clip-path="url(#p37897d8ff3)" style="fill: #1f77b4"/>
   </g>
   <g id="patch_72">
    <path d="M 172.954846 273.312 
L 174.568092 273.312 
L 174.568092 63.722323 
L 172.954846 63.722323 
z
" clip-path="url(#p37897d8ff3)" style="fill: #1f77b4"/>
   </g>
   <g id="patch_73">
    <path d="M 174.568092 273.312 
L 176.181339 273.312 
L 176.181339 53.317161 
L 174.568092 53.317161 
z
" clip-path="url(#p37897d8ff3)" style="fill: #1f77b4"/>
   </g>
   <g id="patch_74">
    <path d="M 176.181339 273.312 
L 177.794585 273.312 
L 177.794585 67.438452 
L 176.181339 67.438452 
z
" clip-path="url(#p37897d8ff3)" style="fill: #1f77b4"/>
   </g>
   <g id="patch_75">
    <path d="M 177.794585 273.312 
L 179.407831 273.312 
L 179.407831 74.87071 
L 177.794585 74.87071 
z
" clip-path="url(#p37897d8ff3)" style="fill: #1f77b4"/>
   </g>
   <g id="patch_76">
    <path d="M 179.407831 273.312 
L 181.021077 273.312 
L 181.021077 60.749419 
L 179.407831 60.749419 
z
" clip-path="url(#p37897d8ff3)" style="fill: #1f77b4"/>
   </g>
   <g id="patch_77">
    <path d="M 181.021077 273.312 
L 182.634323 273.312 
L 182.634323 44.398452 
L 181.021077 44.398452 
z
" clip-path="url(#p37897d8ff3)" style="fill: #1f77b4"/>
   </g>
   <g id="patch_78">
    <path d="M 182.634323 273.312 
L 184.247569 273.312 
L 184.247569 51.83071 
L 182.634323 51.83071 
z
" clip-path="url(#p37897d8ff3)" style="fill: #1f77b4"/>
   </g>
   <g id="patch_79">
    <path d="M 184.247569 273.312 
L 185.860815 273.312 
L 185.860815 65.952 
L 184.247569 65.952 
z
" clip-path="url(#p37897d8ff3)" style="fill: #1f77b4"/>
   </g>
   <g id="patch_80">
    <path d="M 185.860815 273.312 
L 187.474062 273.312 
L 187.474062 52.573935 
L 185.860815 52.573935 
z
" clip-path="url(#p37897d8ff3)" style="fill: #1f77b4"/>
   </g>
   <g id="patch_81">
    <path d="M 187.474062 273.312 
L 189.087308 273.312 
L 189.087308 66.695226 
L 187.474062 66.695226 
z
" clip-path="url(#p37897d8ff3)" style="fill: #1f77b4"/>
   </g>
   <g id="patch_82">
    <path d="M 189.087308 273.312 
L 190.700554 273.312 
L 190.700554 74.87071 
L 189.087308 74.87071 
z
" clip-path="url(#p37897d8ff3)" style="fill: #1f77b4"/>
   </g>
   <g id="patch_83">
    <path d="M 190.700554 273.312 
L 192.3138 273.312 
L 192.3138 48.857806 
L 190.700554 48.857806 
z
" clip-path="url(#p37897d8ff3)" style="fill: #1f77b4"/>
   </g>
   <g id="patch_84">
    <path d="M 192.3138 273.312 
L 193.927046 273.312 
L 193.927046 36.966194 
L 192.3138 36.966194 
z
" clip-path="url(#p37897d8ff3)" style="fill: #1f77b4"/>
   </g>
   <g id="patch_85">
    <path d="M 193.927046 273.312 
L 195.540292 273.312 
L 195.540292 49.601032 
L 193.927046 49.601032 
z
" clip-path="url(#p37897d8ff3)" style="fill: #1f77b4"/>
   </g>
   <g id="patch_86">
    <path d="M 195.540292 273.312 
L 197.153538 273.312 
L 197.153538 50.344258 
L 195.540292 50.344258 
z
" clip-path="url(#p37897d8ff3)" style="fill: #1f77b4"/>
   </g>
   <g id="patch_87">
    <path d="M 197.153538 273.312 
L 198.766785 273.312 
L 198.766785 54.060387 
L 197.153538 54.060387 
z
" clip-path="url(#p37897d8ff3)" style="fill: #1f77b4"/>
   </g>
   <g id="patch_88">
    <path d="M 198.766785 273.312 
L 200.380031 273.312 
L 200.380031 35.479742 
L 198.766785 35.479742 
z
" clip-path="url(#p37897d8ff3)" style="fill: #1f77b4"/>
   </g>
   <g id="patch_89">
    <path d="M 200.380031 273.312 
L 201.993277 273.312 
L 201.993277 38.452645 
L 200.380031 38.452645 
z
" clip-path="url(#p37897d8ff3)" style="fill: #1f77b4"/>
   </g>
   <g id="patch_90">
    <path d="M 201.993277 273.312 
L 203.606523 273.312 
L 203.606523 44.398452 
L 201.993277 44.398452 
z
" clip-path="url(#p37897d8ff3)" style="fill: #1f77b4"/>
   </g>
   <g id="patch_91">
    <path d="M 203.606523 273.312 
L 205.219769 273.312 
L 205.219769 23.588129 
L 203.606523 23.588129 
z
" clip-path="url(#p37897d8ff3)" style="fill: #1f77b4"/>
   </g>
   <g id="patch_92">
    <path d="M 205.219769 273.312 
L 206.833015 273.312 
L 206.833015 36.222968 
L 205.219769 36.222968 
z
" clip-path="url(#p37897d8ff3)" style="fill: #1f77b4"/>
   </g>
   <g id="patch_93">
    <path d="M 206.833015 273.312 
L 208.446261 273.312 
L 208.446261 36.222968 
L 206.833015 36.222968 
z
" clip-path="url(#p37897d8ff3)" style="fill: #1f77b4"/>
   </g>
   <g id="patch_94">
    <path d="M 208.446261 273.312 
L 210.059508 273.312 
L 210.059508 45.884903 
L 208.446261 45.884903 
z
" clip-path="url(#p37897d8ff3)" style="fill: #1f77b4"/>
   </g>
   <g id="patch_95">
    <path d="M 210.059508 273.312 
L 211.672754 273.312 
L 211.672754 65.952 
L 210.059508 65.952 
z
" clip-path="url(#p37897d8ff3)" style="fill: #1f77b4"/>
   </g>
   <g id="patch_96">
    <path d="M 211.672754 273.312 
L 213.286 273.312 
L 213.286 28.79071 
L 211.672754 28.79071 
z
" clip-path="url(#p37897d8ff3)" style="fill: #1f77b4"/>
   </g>
   <g id="patch_97">
    <path d="M 213.286 273.312 
L 214.899246 273.312 
L 214.899246 19.872 
L 213.286 19.872 
z
" clip-path="url(#p37897d8ff3)" style="fill: #1f77b4"/>
   </g>
   <g id="patch_98">
    <path d="M 214.899246 273.312 
L 216.512492 273.312 
L 216.512492 33.250065 
L 214.899246 33.250065 
z
" clip-path="url(#p37897d8ff3)" style="fill: #1f77b4"/>
   </g>
   <g id="patch_99">
    <path d="M 216.512492 273.312 
L 218.125738 273.312 
L 218.125738 36.222968 
L 216.512492 36.222968 
z
" clip-path="url(#p37897d8ff3)" style="fill: #1f77b4"/>
   </g>
   <g id="patch_100">
    <path d="M 218.125738 273.312 
L 219.738984 273.312 
L 219.738984 31.763613 
L 218.125738 31.763613 
z
" clip-path="url(#p37897d8ff3)" style="fill: #1f77b4"/>
   </g>
   <g id="patch_101">
    <path d="M 219.738984 273.312 
L 221.352231 273.312 
L 221.352231 34.736516 
L 219.738984 34.736516 
z
" clip-path="url(#p37897d8ff3)" style="fill: #1f77b4"/>
   </g>
   <g id="patch_102">
    <path d="M 221.352231 273.312 
L 222.965477 273.312 
L 222.965477 39.195871 
L 221.352231 39.195871 
z
" clip-path="url(#p37897d8ff3)" style="fill: #1f77b4"/>
   </g>
   <g id="patch_103">
    <path d="M 222.965477 273.312 
L 224.578723 273.312 
L 224.578723 44.398452 
L 222.965477 44.398452 
z
" clip-path="url(#p37897d8ff3)" style="fill: #1f77b4"/>
   </g>
   <g id="patch_104">
    <path d="M 224.578723 273.312 
L 226.191969 273.312 
L 226.191969 65.208774 
L 224.578723 65.208774 
z
" clip-path="url(#p37897d8ff3)" style="fill: #1f77b4"/>
   </g>
   <g id="patch_105">
    <path d="M 226.191969 273.312 
L 227.805215 273.312 
L 227.805215 39.195871 
L 226.191969 39.195871 
z
" clip-path="url(#p37897d8ff3)" style="fill: #1f77b4"/>
   </g>
   <g id="patch_106">
    <path d="M 227.805215 273.312 
L 229.418461 273.312 
L 229.418461 33.250065 
L 227.805215 33.250065 
z
" clip-path="url(#p37897d8ff3)" style="fill: #1f77b4"/>
   </g>
   <g id="patch_107">
    <path d="M 229.418461 273.312 
L 231.031707 273.312 
L 231.031707 41.425548 
L 229.418461 41.425548 
z
" clip-path="url(#p37897d8ff3)" style="fill: #1f77b4"/>
   </g>
   <g id="patch_108">
    <path d="M 231.031707 273.312 
L 232.644954 273.312 
L 232.644954 52.573935 
L 231.031707 52.573935 
z
" clip-path="url(#p37897d8ff3)" style="fill: #1f77b4"/>
   </g>
   <g id="patch_109">
    <path d="M 232.644954 273.312 
L 234.2582 273.312 
L 234.2582 65.952 
L 232.644954 65.952 
z
" clip-path="url(#p37897d8ff3)" style="fill: #1f77b4"/>
   </g>
   <g id="patch_110">
    <path d="M 234.2582 273.312 
L 235.871446 273.312 
L 235.871446 32.506839 
L 234.2582 32.506839 
z
" clip-path="url(#p37897d8ff3)" style="fill: #1f77b4"/>
   </g>
   <g id="patch_111">
    <path d="M 235.871446 273.312 
L 237.484692 273.312 
L 237.484692 33.250065 
L 235.871446 33.250065 
z
" clip-path="url(#p37897d8ff3)" style="fill: #1f77b4"/>
   </g>
   <g id="patch_112">
    <path d="M 237.484692 273.312 
L 239.097938 273.312 
L 239.097938 36.222968 
L 237.484692 36.222968 
z
" clip-path="url(#p37897d8ff3)" style="fill: #1f77b4"/>
   </g>
   <g id="patch_113">
    <path d="M 239.097938 273.312 
L 240.711184 273.312 
L 240.711184 59.262968 
L 239.097938 59.262968 
z
" clip-path="url(#p37897d8ff3)" style="fill: #1f77b4"/>
   </g>
   <g id="patch_114">
    <path d="M 240.711184 273.312 
L 242.32443 273.312 
L 242.32443 55.546839 
L 240.711184 55.546839 
z
" clip-path="url(#p37897d8ff3)" style="fill: #1f77b4"/>
   </g>
   <g id="patch_115">
    <path d="M 242.32443 273.312 
L 243.937677 273.312 
L 243.937677 66.695226 
L 242.32443 66.695226 
z
" clip-path="url(#p37897d8ff3)" style="fill: #1f77b4"/>
   </g>
   <g id="patch_116">
    <path d="M 243.937677 273.312 
L 245.550923 273.312 
L 245.550923 44.398452 
L 243.937677 44.398452 
z
" clip-path="url(#p37897d8ff3)" style="fill: #1f77b4"/>
   </g>
   <g id="patch_117">
    <path d="M 245.550923 273.312 
L 247.164169 273.312 
L 247.164169 68.181677 
L 245.550923 68.181677 
z
" clip-path="url(#p37897d8ff3)" style="fill: #1f77b4"/>
   </g>
   <g id="patch_118">
    <path d="M 247.164169 273.312 
L 248.777415 273.312 
L 248.777415 81.559742 
L 247.164169 81.559742 
z
" clip-path="url(#p37897d8ff3)" style="fill: #1f77b4"/>
   </g>
   <g id="patch_119">
    <path d="M 248.777415 273.312 
L 250.390661 273.312 
L 250.390661 28.79071 
L 248.777415 28.79071 
z
" clip-path="url(#p37897d8ff3)" style="fill: #1f77b4"/>
   </g>
   <g id="patch_120">
    <path d="M 250.390661 273.312 
L 252.003907 273.312 
L 252.003907 62.979097 
L 250.390661 62.979097 
z
" clip-path="url(#p37897d8ff3)" style="fill: #1f77b4"/>
   </g>
   <g id="patch_121">
    <path d="M 252.003907 273.312 
L 253.617153 273.312 
L 253.617153 67.438452 
L 252.003907 67.438452 
z
" clip-path="url(#p37897d8ff3)" style="fill: #1f77b4"/>
   </g>
   <g id="patch_122">
    <path d="M 253.617153 273.312 
L 255.2304 273.312 
L 255.2304 22.844903 
L 253.617153 22.844903 
z
" clip-path="url(#p37897d8ff3)" style="fill: #1f77b4"/>
   </g>
   <g id="patch_123">
    <path d="M 255.2304 273.312 
L 256.843646 273.312 
L 256.843646 41.425548 
L 255.2304 41.425548 
z
" clip-path="url(#p37897d8ff3)" style="fill: #1f77b4"/>
   </g>
   <g id="patch_124">
    <path d="M 256.843646 273.312 
L 258.456892 273.312 
L 258.456892 37.709419 
L 256.843646 37.709419 
z
" clip-path="url(#p37897d8ff3)" style="fill: #1f77b4"/>
   </g>
   <g id="patch_125">
    <path d="M 258.456892 273.312 
L 260.070138 273.312 
L 260.070138 42.912 
L 258.456892 42.912 
z
" clip-path="url(#p37897d8ff3)" style="fill: #1f77b4"/>
   </g>
   <g id="patch_126">
    <path d="M 260.070138 273.312 
L 261.683384 273.312 
L 261.683384 65.208774 
L 260.070138 65.208774 
z
" clip-path="url(#p37897d8ff3)" style="fill: #1f77b4"/>
   </g>
   <g id="patch_127">
    <path d="M 261.683384 273.312 
L 263.29663 273.312 
L 263.29663 46.628129 
L 261.683384 46.628129 
z
" clip-path="url(#p37897d8ff3)" style="fill: #1f77b4"/>
   </g>
   <g id="patch_128">
    <path d="M 263.29663 273.312 
L 264.909876 273.312 
L 264.909876 67.438452 
L 263.29663 67.438452 
z
" clip-path="url(#p37897d8ff3)" style="fill: #1f77b4"/>
   </g>
   <g id="patch_129">
    <path d="M 264.909876 273.312 
L 266.523123 273.312 
L 266.523123 51.087484 
L 264.909876 51.087484 
z
" clip-path="url(#p37897d8ff3)" style="fill: #1f77b4"/>
   </g>
   <g id="patch_130">
    <path d="M 266.523123 273.312 
L 268.136369 273.312 
L 268.136369 46.628129 
L 266.523123 46.628129 
z
" clip-path="url(#p37897d8ff3)" style="fill: #1f77b4"/>
   </g>
   <g id="patch_131">
    <path d="M 268.136369 273.312 
L 269.749615 273.312 
L 269.749615 83.046194 
L 268.136369 83.046194 
z
" clip-path="url(#p37897d8ff3)" style="fill: #1f77b4"/>
   </g>
   <g id="patch_132">
    <path d="M 269.749615 273.312 
L 271.362861 273.312 
L 271.362861 66.695226 
L 269.749615 66.695226 
z
" clip-path="url(#p37897d8ff3)" style="fill: #1f77b4"/>
   </g>
   <g id="patch_133">
    <path d="M 271.362861 273.312 
L 272.976107 273.312 
L 272.976107 83.046194 
L 271.362861 83.046194 
z
" clip-path="url(#p37897d8ff3)" style="fill: #1f77b4"/>
   </g>
   <g id="patch_134">
    <path d="M 272.976107 273.312 
L 274.589353 273.312 
L 274.589353 88.992 
L 272.976107 88.992 
z
" clip-path="url(#p37897d8ff3)" style="fill: #1f77b4"/>
   </g>
   <g id="patch_135">
    <path d="M 274.589353 273.312 
L 276.202599 273.312 
L 276.202599 56.290065 
L 274.589353 56.290065 
z
" clip-path="url(#p37897d8ff3)" style="fill: #1f77b4"/>
   </g>
   <g id="patch_136">
    <path d="M 276.202599 273.312 
L 277.815846 273.312 
L 277.815846 49.601032 
L 276.202599 49.601032 
z
" clip-path="url(#p37897d8ff3)" style="fill: #1f77b4"/>
   </g>
   <g id="patch_137">
    <path d="M 277.815846 273.312 
L 279.429092 273.312 
L 279.429092 78.586839 
L 277.815846 78.586839 
z
" clip-path="url(#p37897d8ff3)" style="fill: #1f77b4"/>
   </g>
   <g id="patch_138">
    <path d="M 279.429092 273.312 
L 281.042338 273.312 
L 281.042338 71.897806 
L 279.429092 71.897806 
z
" clip-path="url(#p37897d8ff3)" style="fill: #1f77b4"/>
   </g>
   <g id="patch_139">
    <path d="M 281.042338 273.312 
L 282.655584 273.312 
L 282.655584 100.883613 
L 281.042338 100.883613 
z
" clip-path="url(#p37897d8ff3)" style="fill: #1f77b4"/>
   </g>
   <g id="patch_140">
    <path d="M 282.655584 273.312 
L 284.26883 273.312 
L 284.26883 85.275871 
L 282.655584 85.275871 
z
" clip-path="url(#p37897d8ff3)" style="fill: #1f77b4"/>
   </g>
   <g id="patch_141">
    <path d="M 284.26883 273.312 
L 285.882076 273.312 
L 285.882076 102.370065 
L 284.26883 102.370065 
z
" clip-path="url(#p37897d8ff3)" style="fill: #1f77b4"/>
   </g>
   <g id="patch_142">
    <path d="M 285.882076 273.312 
L 287.495322 273.312 
L 287.495322 71.897806 
L 285.882076 71.897806 
z
" clip-path="url(#p37897d8ff3)" style="fill: #1f77b4"/>
   </g>
   <g id="patch_143">
    <path d="M 287.495322 273.312 
L 289.108569 273.312 
L 289.108569 88.248774 
L 287.495322 88.248774 
z
" clip-path="url(#p37897d8ff3)" style="fill: #1f77b4"/>
   </g>
   <g id="patch_144">
    <path d="M 289.108569 273.312 
L 290.721815 273.312 
L 290.721815 89.735226 
L 289.108569 89.735226 
z
" clip-path="url(#p37897d8ff3)" style="fill: #1f77b4"/>
   </g>
   <g id="patch_145">
    <path d="M 290.721815 273.312 
L 292.335061 273.312 
L 292.335061 91.221677 
L 290.721815 91.221677 
z
" clip-path="url(#p37897d8ff3)" style="fill: #1f77b4"/>
   </g>
   <g id="patch_146">
    <path d="M 292.335061 273.312 
L 293.948307 273.312 
L 293.948307 98.653935 
L 292.335061 98.653935 
z
" clip-path="url(#p37897d8ff3)" style="fill: #1f77b4"/>
   </g>
   <g id="patch_147">
    <path d="M 293.948307 273.312 
L 295.561553 273.312 
L 295.561553 96.424258 
L 293.948307 96.424258 
z
" clip-path="url(#p37897d8ff3)" style="fill: #1f77b4"/>
   </g>
   <g id="patch_148">
    <path d="M 295.561553 273.312 
L 297.174799 273.312 
L 297.174799 88.992 
L 295.561553 88.992 
z
" clip-path="url(#p37897d8ff3)" style="fill: #1f77b4"/>
   </g>
   <g id="patch_149">
    <path d="M 297.174799 273.312 
L 298.788045 273.312 
L 298.788045 106.829419 
L 297.174799 106.829419 
z
" clip-path="url(#p37897d8ff3)" style="fill: #1f77b4"/>
   </g>
   <g id="patch_150">
    <path d="M 298.788045 273.312 
L 300.401292 273.312 
L 300.401292 103.856516 
L 298.788045 103.856516 
z
" clip-path="url(#p37897d8ff3)" style="fill: #1f77b4"/>
   </g>
   <g id="patch_151">
    <path d="M 300.401292 273.312 
L 302.014538 273.312 
L 302.014538 109.059097 
L 300.401292 109.059097 
z
" clip-path="url(#p37897d8ff3)" style="fill: #1f77b4"/>
   </g>
   <g id="patch_152">
    <path d="M 302.014538 273.312 
L 303.627784 273.312 
L 303.627784 103.11329 
L 302.014538 103.11329 
z
" clip-path="url(#p37897d8ff3)" style="fill: #1f77b4"/>
   </g>
   <g id="patch_153">
    <path d="M 303.627784 273.312 
L 305.24103 273.312 
L 305.24103 95.681032 
L 303.627784 95.681032 
z
" clip-path="url(#p37897d8ff3)" style="fill: #1f77b4"/>
   </g>
   <g id="patch_154">
    <path d="M 305.24103 273.312 
L 306.854276 273.312 
L 306.854276 124.666839 
L 305.24103 124.666839 
z
" clip-path="url(#p37897d8ff3)" style="fill: #1f77b4"/>
   </g>
   <g id="patch_155">
    <path d="M 306.854276 273.312 
L 308.467522 273.312 
L 308.467522 110.545548 
L 306.854276 110.545548 
z
" clip-path="url(#p37897d8ff3)" style="fill: #1f77b4"/>
   </g>
   <g id="patch_156">
    <path d="M 308.467522 273.312 
L 310.080768 273.312 
L 310.080768 120.95071 
L 308.467522 120.95071 
z
" clip-path="url(#p37897d8ff3)" style="fill: #1f77b4"/>
   </g>
   <g id="patch_157">
    <path d="M 310.080768 273.312 
L 311.694015 273.312 
L 311.694015 108.315871 
L 310.080768 108.315871 
z
" clip-path="url(#p37897d8ff3)" style="fill: #1f77b4"/>
   </g>
   <g id="patch_158">
    <path d="M 311.694015 273.312 
L 313.307261 273.312 
L 313.307261 126.15329 
L 311.694015 126.15329 
z
" clip-path="url(#p37897d8ff3)" style="fill: #1f77b4"/>
   </g>
   <g id="patch_159">
    <path d="M 313.307261 273.312 
L 314.920507 273.312 
L 314.920507 132.099097 
L 313.307261 132.099097 
z
" clip-path="url(#p37897d8ff3)" style="fill: #1f77b4"/>
   </g>
   <g id="patch_160">
    <path d="M 314.920507 273.312 
L 316.533753 273.312 
L 316.533753 129.869419 
L 314.920507 129.869419 
z
" clip-path="url(#p37897d8ff3)" style="fill: #1f77b4"/>
   </g>
   <g id="patch_161">
    <path d="M 316.533753 273.312 
L 318.146999 273.312 
L 318.146999 136.558452 
L 316.533753 136.558452 
z
" clip-path="url(#p37897d8ff3)" style="fill: #1f77b4"/>
   </g>
   <g id="patch_162">
    <path d="M 318.146999 273.312 
L 319.760245 273.312 
L 319.760245 136.558452 
L 318.146999 136.558452 
z
" clip-path="url(#p37897d8ff3)" style="fill: #1f77b4"/>
   </g>
   <g id="patch_163">
    <path d="M 319.760245 273.312 
L 321.373491 273.312 
L 321.373491 149.936516 
L 319.760245 149.936516 
z
" clip-path="url(#p37897d8ff3)" style="fill: #1f77b4"/>
   </g>
   <g id="patch_164">
    <path d="M 321.373491 273.312 
L 322.986738 273.312 
L 322.986738 145.477161 
L 321.373491 145.477161 
z
" clip-path="url(#p37897d8ff3)" style="fill: #1f77b4"/>
   </g>
   <g id="patch_165">
    <path d="M 322.986738 273.312 
L 324.599984 273.312 
L 324.599984 132.842323 
L 322.986738 132.842323 
z
" clip-path="url(#p37897d8ff3)" style="fill: #1f77b4"/>
   </g>
   <g id="patch_166">
    <path d="M 324.599984 273.312 
L 326.21323 273.312 
L 326.21323 122.437161 
L 324.599984 122.437161 
z
" clip-path="url(#p37897d8ff3)" style="fill: #1f77b4"/>
   </g>
   <g id="patch_167">
    <path d="M 326.21323 273.312 
L 327.826476 273.312 
L 327.826476 122.437161 
L 326.21323 122.437161 
z
" clip-path="url(#p37897d8ff3)" style="fill: #1f77b4"/>
   </g>
   <g id="patch_168">
    <path d="M 327.826476 273.312 
L 329.439722 273.312 
L 329.439722 156.625548 
L 327.826476 156.625548 
z
" clip-path="url(#p37897d8ff3)" style="fill: #1f77b4"/>
   </g>
   <g id="patch_169">
    <path d="M 329.439722 273.312 
L 331.052968 273.312 
L 331.052968 149.19329 
L 329.439722 149.19329 
z
" clip-path="url(#p37897d8ff3)" style="fill: #1f77b4"/>
   </g>
   <g id="patch_170">
    <path d="M 331.052968 273.312 
L 332.666214 273.312 
L 332.666214 164.801032 
L 331.052968 164.801032 
z
" clip-path="url(#p37897d8ff3)" style="fill: #1f77b4"/>
   </g>
   <g id="patch_171">
    <path d="M 332.666214 273.312 
L 334.27946 273.312 
L 334.27946 153.652645 
L 332.666214 153.652645 
z
" clip-path="url(#p37897d8ff3)" style="fill: #1f77b4"/>
   </g>
   <g id="patch_172">
    <path d="M 334.27946 273.312 
L 335.892707 273.312 
L 335.892707 173.719742 
L 334.27946 173.719742 
z
" clip-path="url(#p37897d8ff3)" style="fill: #1f77b4"/>
   </g>
   <g id="patch_173">
    <path d="M 335.892707 273.312 
L 337.505953 273.312 
L 337.505953 172.23329 
L 335.892707 172.23329 
z
" clip-path="url(#p37897d8ff3)" style="fill: #1f77b4"/>
   </g>
   <g id="patch_174">
    <path d="M 337.505953 273.312 
L 339.119199 273.312 
L 339.119199 182.638452 
L 337.505953 182.638452 
z
" clip-path="url(#p37897d8ff3)" style="fill: #1f77b4"/>
   </g>
   <g id="patch_175">
    <path d="M 339.119199 273.312 
L 340.732445 273.312 
L 340.732445 160.341677 
L 339.119199 160.341677 
z
" clip-path="url(#p37897d8ff3)" style="fill: #1f77b4"/>
   </g>
   <g id="patch_176">
    <path d="M 340.732445 273.312 
L 342.345691 273.312 
L 342.345691 175.206194 
L 340.732445 175.206194 
z
" clip-path="url(#p37897d8ff3)" style="fill: #1f77b4"/>
   </g>
   <g id="patch_177">
    <path d="M 342.345691 273.312 
L 343.958937 273.312 
L 343.958937 187.097806 
L 342.345691 187.097806 
z
" clip-path="url(#p37897d8ff3)" style="fill: #1f77b4"/>
   </g>
   <g id="patch_178">
    <path d="M 343.958937 273.312 
L 345.572183 273.312 
L 345.572183 189.327484 
L 343.958937 189.327484 
z
" clip-path="url(#p37897d8ff3)" style="fill: #1f77b4"/>
   </g>
   <g id="patch_179">
    <path d="M 345.572183 273.312 
L 347.18543 273.312 
L 347.18543 204.192 
L 345.572183 204.192 
z
" clip-path="url(#p37897d8ff3)" style="fill: #1f77b4"/>
   </g>
   <g id="patch_180">
    <path d="M 347.18543 273.312 
L 348.798676 273.312 
L 348.798676 199.732645 
L 347.18543 199.732645 
z
" clip-path="url(#p37897d8ff3)" style="fill: #1f77b4"/>
   </g>
   <g id="patch_181">
    <path d="M 348.798676 273.312 
L 350.411922 273.312 
L 350.411922 188.584258 
L 348.798676 188.584258 
z
" clip-path="url(#p37897d8ff3)" style="fill: #1f77b4"/>
   </g>
   <g id="patch_182">
    <path d="M 350.411922 273.312 
L 352.025168 273.312 
L 352.025168 202.705548 
L 350.411922 202.705548 
z
" clip-path="url(#p37897d8ff3)" style="fill: #1f77b4"/>
   </g>
   <g id="patch_183">
    <path d="M 352.025168 273.312 
L 353.638414 273.312 
L 353.638414 195.27329 
L 352.025168 195.27329 
z
" clip-path="url(#p37897d8ff3)" style="fill: #1f77b4"/>
   </g>
   <g id="patch_184">
    <path d="M 353.638414 273.312 
L 355.25166 273.312 
L 355.25166 199.732645 
L 353.638414 199.732645 
z
" clip-path="url(#p37897d8ff3)" style="fill: #1f77b4"/>
   </g>
   <g id="patch_185">
    <path d="M 355.25166 273.312 
L 356.864906 273.312 
L 356.864906 206.421677 
L 355.25166 206.421677 
z
" clip-path="url(#p37897d8ff3)" style="fill: #1f77b4"/>
   </g>
   <g id="patch_186">
    <path d="M 356.864906 273.312 
L 358.478153 273.312 
L 358.478153 216.083613 
L 356.864906 216.083613 
z
" clip-path="url(#p37897d8ff3)" style="fill: #1f77b4"/>
   </g>
   <g id="patch_187">
    <path d="M 358.478153 273.312 
L 360.091399 273.312 
L 360.091399 200.475871 
L 358.478153 200.475871 
z
" clip-path="url(#p37897d8ff3)" style="fill: #1f77b4"/>
   </g>
   <g id="patch_188">
    <path d="M 360.091399 273.312 
L 361.704645 273.312 
L 361.704645 210.881032 
L 360.091399 210.881032 
z
" clip-path="url(#p37897d8ff3)" style="fill: #1f77b4"/>
   </g>
   <g id="patch_189">
    <path d="M 361.704645 273.312 
L 363.317891 273.312 
L 363.317891 224.259097 
L 361.704645 224.259097 
z
" clip-path="url(#p37897d8ff3)" style="fill: #1f77b4"/>
   </g>
   <g id="patch_190">
    <path d="M 363.317891 273.312 
L 364.931137 273.312 
L 364.931137 225.002323 
L 363.317891 225.002323 
z
" clip-path="url(#p37897d8ff3)" style="fill: #1f77b4"/>
   </g>
   <g id="patch_191">
    <path d="M 364.931137 273.312 
L 366.544383 273.312 
L 366.544383 226.488774 
L 364.931137 226.488774 
z
" clip-path="url(#p37897d8ff3)" style="fill: #1f77b4"/>
   </g>
   <g id="patch_192">
    <path d="M 366.544383 273.312 
L 368.157629 273.312 
L 368.157629 242.096516 
L 366.544383 242.096516 
z
" clip-path="url(#p37897d8ff3)" style="fill: #1f77b4"/>
   </g>
   <g id="patch_193">
    <path d="M 368.157629 273.312 
L 369.770876 273.312 
L 369.770876 235.407484 
L 368.157629 235.407484 
z
" clip-path="url(#p37897d8ff3)" style="fill: #1f77b4"/>
   </g>
   <g id="patch_194">
    <path d="M 369.770876 273.312 
L 371.384122 273.312 
L 371.384122 245.069419 
L 369.770876 245.069419 
z
" clip-path="url(#p37897d8ff3)" style="fill: #1f77b4"/>
   </g>
   <g id="patch_195">
    <path d="M 371.384122 273.312 
L 372.997368 273.312 
L 372.997368 237.637161 
L 371.384122 237.637161 
z
" clip-path="url(#p37897d8ff3)" style="fill: #1f77b4"/>
   </g>
   <g id="patch_196">
    <path d="M 372.997368 273.312 
L 374.610614 273.312 
L 374.610614 257.704258 
L 372.997368 257.704258 
z
" clip-path="url(#p37897d8ff3)" style="fill: #1f77b4"/>
   </g>
   <g id="patch_197">
    <path d="M 374.610614 273.312 
L 376.22386 273.312 
L 376.22386 258.447484 
L 374.610614 258.447484 
z
" clip-path="url(#p37897d8ff3)" style="fill: #1f77b4"/>
   </g>
   <g id="patch_198">
    <path d="M 376.22386 273.312 
L 377.837106 273.312 
L 377.837106 262.163613 
L 376.22386 262.163613 
z
" clip-path="url(#p37897d8ff3)" style="fill: #1f77b4"/>
   </g>
   <g id="patch_199">
    <path d="M 377.837106 273.312 
L 379.450352 273.312 
L 379.450352 257.704258 
L 377.837106 257.704258 
z
" clip-path="url(#p37897d8ff3)" style="fill: #1f77b4"/>
   </g>
   <g id="patch_200">
    <path d="M 379.450352 273.312 
L 381.063599 273.312 
L 381.063599 264.39329 
L 379.450352 264.39329 
z
" clip-path="url(#p37897d8ff3)" style="fill: #1f77b4"/>
   </g>
   <g id="patch_201">
    <path d="M 381.063599 273.312 
L 382.676845 273.312 
L 382.676845 269.595871 
L 381.063599 269.595871 
z
" clip-path="url(#p37897d8ff3)" style="fill: #1f77b4"/>
   </g>
   <g id="patch_202">
    <path d="M 382.676845 273.312 
L 384.290091 273.312 
L 384.290091 270.339097 
L 382.676845 270.339097 
z
" clip-path="url(#p37897d8ff3)" style="fill: #1f77b4"/>
   </g>
   <g id="matplotlib.axis_1">
    <g id="xtick_1">
     <g id="line2d_1">
      <defs>
       <path id="m53a03a75c5" d="M 0 0 
L 0 3.5 
" style="stroke: #000000; stroke-width: 0.8"/>
      </defs>
      <g>
       <use xlink:href="#m53a03a75c5" x="60.013977" y="273.312" style="stroke: #000000; stroke-width: 0.8"/>
      </g>
     </g>
     <g id="text_1">
      <!-- 0.0 -->
      <g transform="translate(52.062415 287.910437)scale(0.1 -0.1)">
       <defs>
        <path id="DejaVuSans-30" d="M 2034 4250 
Q 1547 4250 1301 3770 
Q 1056 3291 1056 2328 
Q 1056 1369 1301 889 
Q 1547 409 2034 409 
Q 2525 409 2770 889 
Q 3016 1369 3016 2328 
Q 3016 3291 2770 3770 
Q 2525 4250 2034 4250 
z
M 2034 4750 
Q 2819 4750 3233 4129 
Q 3647 3509 3647 2328 
Q 3647 1150 3233 529 
Q 2819 -91 2034 -91 
Q 1250 -91 836 529 
Q 422 1150 422 2328 
Q 422 3509 836 4129 
Q 1250 4750 2034 4750 
z
" transform="scale(0.015625)"/>
        <path id="DejaVuSans-2e" d="M 684 794 
L 1344 794 
L 1344 0 
L 684 0 
L 684 794 
z
" transform="scale(0.015625)"/>
       </defs>
       <use xlink:href="#DejaVuSans-30"/>
       <use xlink:href="#DejaVuSans-2e" x="63.623047"/>
       <use xlink:href="#DejaVuSans-30" x="95.410156"/>
      </g>
     </g>
    </g>
    <g id="xtick_2">
     <g id="line2d_2">
      <g>
       <use xlink:href="#m53a03a75c5" x="101.350278" y="273.312" style="stroke: #000000; stroke-width: 0.8"/>
      </g>
     </g>
     <g id="text_2">
      <!-- 0.2 -->
      <g transform="translate(93.398715 287.910437)scale(0.1 -0.1)">
       <defs>
        <path id="DejaVuSans-32" d="M 1228 531 
L 3431 531 
L 3431 0 
L 469 0 
L 469 531 
Q 828 903 1448 1529 
Q 2069 2156 2228 2338 
Q 2531 2678 2651 2914 
Q 2772 3150 2772 3378 
Q 2772 3750 2511 3984 
Q 2250 4219 1831 4219 
Q 1534 4219 1204 4116 
Q 875 4013 500 3803 
L 500 4441 
Q 881 4594 1212 4672 
Q 1544 4750 1819 4750 
Q 2544 4750 2975 4387 
Q 3406 4025 3406 3419 
Q 3406 3131 3298 2873 
Q 3191 2616 2906 2266 
Q 2828 2175 2409 1742 
Q 1991 1309 1228 531 
z
" transform="scale(0.015625)"/>
       </defs>
       <use xlink:href="#DejaVuSans-30"/>
       <use xlink:href="#DejaVuSans-2e" x="63.623047"/>
       <use xlink:href="#DejaVuSans-32" x="95.410156"/>
      </g>
     </g>
    </g>
    <g id="xtick_3">
     <g id="line2d_3">
      <g>
       <use xlink:href="#m53a03a75c5" x="142.686578" y="273.312" style="stroke: #000000; stroke-width: 0.8"/>
      </g>
     </g>
     <g id="text_3">
      <!-- 0.4 -->
      <g transform="translate(134.735016 287.910437)scale(0.1 -0.1)">
       <defs>
        <path id="DejaVuSans-34" d="M 2419 4116 
L 825 1625 
L 2419 1625 
L 2419 4116 
z
M 2253 4666 
L 3047 4666 
L 3047 1625 
L 3713 1625 
L 3713 1100 
L 3047 1100 
L 3047 0 
L 2419 0 
L 2419 1100 
L 313 1100 
L 313 1709 
L 2253 4666 
z
" transform="scale(0.015625)"/>
       </defs>
       <use xlink:href="#DejaVuSans-30"/>
       <use xlink:href="#DejaVuSans-2e" x="63.623047"/>
       <use xlink:href="#DejaVuSans-34" x="95.410156"/>
      </g>
     </g>
    </g>
    <g id="xtick_4">
     <g id="line2d_4">
      <g>
       <use xlink:href="#m53a03a75c5" x="184.022879" y="273.312" style="stroke: #000000; stroke-width: 0.8"/>
      </g>
     </g>
     <g id="text_4">
      <!-- 0.6 -->
      <g transform="translate(176.071316 287.910437)scale(0.1 -0.1)">
       <defs>
        <path id="DejaVuSans-36" d="M 2113 2584 
Q 1688 2584 1439 2293 
Q 1191 2003 1191 1497 
Q 1191 994 1439 701 
Q 1688 409 2113 409 
Q 2538 409 2786 701 
Q 3034 994 3034 1497 
Q 3034 2003 2786 2293 
Q 2538 2584 2113 2584 
z
M 3366 4563 
L 3366 3988 
Q 3128 4100 2886 4159 
Q 2644 4219 2406 4219 
Q 1781 4219 1451 3797 
Q 1122 3375 1075 2522 
Q 1259 2794 1537 2939 
Q 1816 3084 2150 3084 
Q 2853 3084 3261 2657 
Q 3669 2231 3669 1497 
Q 3669 778 3244 343 
Q 2819 -91 2113 -91 
Q 1303 -91 875 529 
Q 447 1150 447 2328 
Q 447 3434 972 4092 
Q 1497 4750 2381 4750 
Q 2619 4750 2861 4703 
Q 3103 4656 3366 4563 
z
" transform="scale(0.015625)"/>
       </defs>
       <use xlink:href="#DejaVuSans-30"/>
       <use xlink:href="#DejaVuSans-2e" x="63.623047"/>
       <use xlink:href="#DejaVuSans-36" x="95.410156"/>
      </g>
     </g>
    </g>
    <g id="xtick_5">
     <g id="line2d_5">
      <g>
       <use xlink:href="#m53a03a75c5" x="225.35918" y="273.312" style="stroke: #000000; stroke-width: 0.8"/>
      </g>
     </g>
     <g id="text_5">
      <!-- 0.8 -->
      <g transform="translate(217.407617 287.910437)scale(0.1 -0.1)">
       <defs>
        <path id="DejaVuSans-38" d="M 2034 2216 
Q 1584 2216 1326 1975 
Q 1069 1734 1069 1313 
Q 1069 891 1326 650 
Q 1584 409 2034 409 
Q 2484 409 2743 651 
Q 3003 894 3003 1313 
Q 3003 1734 2745 1975 
Q 2488 2216 2034 2216 
z
M 1403 2484 
Q 997 2584 770 2862 
Q 544 3141 544 3541 
Q 544 4100 942 4425 
Q 1341 4750 2034 4750 
Q 2731 4750 3128 4425 
Q 3525 4100 3525 3541 
Q 3525 3141 3298 2862 
Q 3072 2584 2669 2484 
Q 3125 2378 3379 2068 
Q 3634 1759 3634 1313 
Q 3634 634 3220 271 
Q 2806 -91 2034 -91 
Q 1263 -91 848 271 
Q 434 634 434 1313 
Q 434 1759 690 2068 
Q 947 2378 1403 2484 
z
M 1172 3481 
Q 1172 3119 1398 2916 
Q 1625 2713 2034 2713 
Q 2441 2713 2670 2916 
Q 2900 3119 2900 3481 
Q 2900 3844 2670 4047 
Q 2441 4250 2034 4250 
Q 1625 4250 1398 4047 
Q 1172 3844 1172 3481 
z
" transform="scale(0.015625)"/>
       </defs>
       <use xlink:href="#DejaVuSans-30"/>
       <use xlink:href="#DejaVuSans-2e" x="63.623047"/>
       <use xlink:href="#DejaVuSans-38" x="95.410156"/>
      </g>
     </g>
    </g>
    <g id="xtick_6">
     <g id="line2d_6">
      <g>
       <use xlink:href="#m53a03a75c5" x="266.69548" y="273.312" style="stroke: #000000; stroke-width: 0.8"/>
      </g>
     </g>
     <g id="text_6">
      <!-- 1.0 -->
      <g transform="translate(258.743918 287.910437)scale(0.1 -0.1)">
       <defs>
        <path id="DejaVuSans-31" d="M 794 531 
L 1825 531 
L 1825 4091 
L 703 3866 
L 703 4441 
L 1819 4666 
L 2450 4666 
L 2450 531 
L 3481 531 
L 3481 0 
L 794 0 
L 794 531 
z
" transform="scale(0.015625)"/>
       </defs>
       <use xlink:href="#DejaVuSans-31"/>
       <use xlink:href="#DejaVuSans-2e" x="63.623047"/>
       <use xlink:href="#DejaVuSans-30" x="95.410156"/>
      </g>
     </g>
    </g>
    <g id="xtick_7">
     <g id="line2d_7">
      <g>
       <use xlink:href="#m53a03a75c5" x="308.031781" y="273.312" style="stroke: #000000; stroke-width: 0.8"/>
      </g>
     </g>
     <g id="text_7">
      <!-- 1.2 -->
      <g transform="translate(300.080218 287.910437)scale(0.1 -0.1)">
       <use xlink:href="#DejaVuSans-31"/>
       <use xlink:href="#DejaVuSans-2e" x="63.623047"/>
       <use xlink:href="#DejaVuSans-32" x="95.410156"/>
      </g>
     </g>
    </g>
    <g id="xtick_8">
     <g id="line2d_8">
      <g>
       <use xlink:href="#m53a03a75c5" x="349.368081" y="273.312" style="stroke: #000000; stroke-width: 0.8"/>
      </g>
     </g>
     <g id="text_8">
      <!-- 1.4 -->
      <g transform="translate(341.416519 287.910437)scale(0.1 -0.1)">
       <use xlink:href="#DejaVuSans-31"/>
       <use xlink:href="#DejaVuSans-2e" x="63.623047"/>
       <use xlink:href="#DejaVuSans-34" x="95.410156"/>
      </g>
     </g>
    </g>
    <g id="xtick_9">
     <g id="line2d_9">
      <g>
       <use xlink:href="#m53a03a75c5" x="390.704382" y="273.312" style="stroke: #000000; stroke-width: 0.8"/>
      </g>
     </g>
     <g id="text_9">
      <!-- 1.6 -->
      <g transform="translate(382.752819 287.910437)scale(0.1 -0.1)">
       <use xlink:href="#DejaVuSans-31"/>
       <use xlink:href="#DejaVuSans-2e" x="63.623047"/>
       <use xlink:href="#DejaVuSans-36" x="95.410156"/>
      </g>
     </g>
    </g>
    <g id="text_10">
     <!-- Angle with normal (rad) -->
     <g transform="translate(163.023281 301.588562)scale(0.1 -0.1)">
      <defs>
       <path id="DejaVuSans-41" d="M 2188 4044 
L 1331 1722 
L 3047 1722 
L 2188 4044 
z
M 1831 4666 
L 2547 4666 
L 4325 0 
L 3669 0 
L 3244 1197 
L 1141 1197 
L 716 0 
L 50 0 
L 1831 4666 
z
" transform="scale(0.015625)"/>
       <path id="DejaVuSans-6e" d="M 3513 2113 
L 3513 0 
L 2938 0 
L 2938 2094 
Q 2938 2591 2744 2837 
Q 2550 3084 2163 3084 
Q 1697 3084 1428 2787 
Q 1159 2491 1159 1978 
L 1159 0 
L 581 0 
L 581 3500 
L 1159 3500 
L 1159 2956 
Q 1366 3272 1645 3428 
Q 1925 3584 2291 3584 
Q 2894 3584 3203 3211 
Q 3513 2838 3513 2113 
z
" transform="scale(0.015625)"/>
       <path id="DejaVuSans-67" d="M 2906 1791 
Q 2906 2416 2648 2759 
Q 2391 3103 1925 3103 
Q 1463 3103 1205 2759 
Q 947 2416 947 1791 
Q 947 1169 1205 825 
Q 1463 481 1925 481 
Q 2391 481 2648 825 
Q 2906 1169 2906 1791 
z
M 3481 434 
Q 3481 -459 3084 -895 
Q 2688 -1331 1869 -1331 
Q 1566 -1331 1297 -1286 
Q 1028 -1241 775 -1147 
L 775 -588 
Q 1028 -725 1275 -790 
Q 1522 -856 1778 -856 
Q 2344 -856 2625 -561 
Q 2906 -266 2906 331 
L 2906 616 
Q 2728 306 2450 153 
Q 2172 0 1784 0 
Q 1141 0 747 490 
Q 353 981 353 1791 
Q 353 2603 747 3093 
Q 1141 3584 1784 3584 
Q 2172 3584 2450 3431 
Q 2728 3278 2906 2969 
L 2906 3500 
L 3481 3500 
L 3481 434 
z
" transform="scale(0.015625)"/>
       <path id="DejaVuSans-6c" d="M 603 4863 
L 1178 4863 
L 1178 0 
L 603 0 
L 603 4863 
z
" transform="scale(0.015625)"/>
       <path id="DejaVuSans-65" d="M 3597 1894 
L 3597 1613 
L 953 1613 
Q 991 1019 1311 708 
Q 1631 397 2203 397 
Q 2534 397 2845 478 
Q 3156 559 3463 722 
L 3463 178 
Q 3153 47 2828 -22 
Q 2503 -91 2169 -91 
Q 1331 -91 842 396 
Q 353 884 353 1716 
Q 353 2575 817 3079 
Q 1281 3584 2069 3584 
Q 2775 3584 3186 3129 
Q 3597 2675 3597 1894 
z
M 3022 2063 
Q 3016 2534 2758 2815 
Q 2500 3097 2075 3097 
Q 1594 3097 1305 2825 
Q 1016 2553 972 2059 
L 3022 2063 
z
" transform="scale(0.015625)"/>
       <path id="DejaVuSans-20" transform="scale(0.015625)"/>
       <path id="DejaVuSans-77" d="M 269 3500 
L 844 3500 
L 1563 769 
L 2278 3500 
L 2956 3500 
L 3675 769 
L 4391 3500 
L 4966 3500 
L 4050 0 
L 3372 0 
L 2619 2869 
L 1863 0 
L 1184 0 
L 269 3500 
z
" transform="scale(0.015625)"/>
       <path id="DejaVuSans-69" d="M 603 3500 
L 1178 3500 
L 1178 0 
L 603 0 
L 603 3500 
z
M 603 4863 
L 1178 4863 
L 1178 4134 
L 603 4134 
L 603 4863 
z
" transform="scale(0.015625)"/>
       <path id="DejaVuSans-74" d="M 1172 4494 
L 1172 3500 
L 2356 3500 
L 2356 3053 
L 1172 3053 
L 1172 1153 
Q 1172 725 1289 603 
Q 1406 481 1766 481 
L 2356 481 
L 2356 0 
L 1766 0 
Q 1100 0 847 248 
Q 594 497 594 1153 
L 594 3053 
L 172 3053 
L 172 3500 
L 594 3500 
L 594 4494 
L 1172 4494 
z
" transform="scale(0.015625)"/>
       <path id="DejaVuSans-68" d="M 3513 2113 
L 3513 0 
L 2938 0 
L 2938 2094 
Q 2938 2591 2744 2837 
Q 2550 3084 2163 3084 
Q 1697 3084 1428 2787 
Q 1159 2491 1159 1978 
L 1159 0 
L 581 0 
L 581 4863 
L 1159 4863 
L 1159 2956 
Q 1366 3272 1645 3428 
Q 1925 3584 2291 3584 
Q 2894 3584 3203 3211 
Q 3513 2838 3513 2113 
z
" transform="scale(0.015625)"/>
       <path id="DejaVuSans-6f" d="M 1959 3097 
Q 1497 3097 1228 2736 
Q 959 2375 959 1747 
Q 959 1119 1226 758 
Q 1494 397 1959 397 
Q 2419 397 2687 759 
Q 2956 1122 2956 1747 
Q 2956 2369 2687 2733 
Q 2419 3097 1959 3097 
z
M 1959 3584 
Q 2709 3584 3137 3096 
Q 3566 2609 3566 1747 
Q 3566 888 3137 398 
Q 2709 -91 1959 -91 
Q 1206 -91 779 398 
Q 353 888 353 1747 
Q 353 2609 779 3096 
Q 1206 3584 1959 3584 
z
" transform="scale(0.015625)"/>
       <path id="DejaVuSans-72" d="M 2631 2963 
Q 2534 3019 2420 3045 
Q 2306 3072 2169 3072 
Q 1681 3072 1420 2755 
Q 1159 2438 1159 1844 
L 1159 0 
L 581 0 
L 581 3500 
L 1159 3500 
L 1159 2956 
Q 1341 3275 1631 3429 
Q 1922 3584 2338 3584 
Q 2397 3584 2469 3576 
Q 2541 3569 2628 3553 
L 2631 2963 
z
" transform="scale(0.015625)"/>
       <path id="DejaVuSans-6d" d="M 3328 2828 
Q 3544 3216 3844 3400 
Q 4144 3584 4550 3584 
Q 5097 3584 5394 3201 
Q 5691 2819 5691 2113 
L 5691 0 
L 5113 0 
L 5113 2094 
Q 5113 2597 4934 2840 
Q 4756 3084 4391 3084 
Q 3944 3084 3684 2787 
Q 3425 2491 3425 1978 
L 3425 0 
L 2847 0 
L 2847 2094 
Q 2847 2600 2669 2842 
Q 2491 3084 2119 3084 
Q 1678 3084 1418 2786 
Q 1159 2488 1159 1978 
L 1159 0 
L 581 0 
L 581 3500 
L 1159 3500 
L 1159 2956 
Q 1356 3278 1631 3431 
Q 1906 3584 2284 3584 
Q 2666 3584 2933 3390 
Q 3200 3197 3328 2828 
z
" transform="scale(0.015625)"/>
       <path id="DejaVuSans-61" d="M 2194 1759 
Q 1497 1759 1228 1600 
Q 959 1441 959 1056 
Q 959 750 1161 570 
Q 1363 391 1709 391 
Q 2188 391 2477 730 
Q 2766 1069 2766 1631 
L 2766 1759 
L 2194 1759 
z
M 3341 1997 
L 3341 0 
L 2766 0 
L 2766 531 
Q 2569 213 2275 61 
Q 1981 -91 1556 -91 
Q 1019 -91 701 211 
Q 384 513 384 1019 
Q 384 1609 779 1909 
Q 1175 2209 1959 2209 
L 2766 2209 
L 2766 2266 
Q 2766 2663 2505 2880 
Q 2244 3097 1772 3097 
Q 1472 3097 1187 3025 
Q 903 2953 641 2809 
L 641 3341 
Q 956 3463 1253 3523 
Q 1550 3584 1831 3584 
Q 2591 3584 2966 3190 
Q 3341 2797 3341 1997 
z
" transform="scale(0.015625)"/>
       <path id="DejaVuSans-28" d="M 1984 4856 
Q 1566 4138 1362 3434 
Q 1159 2731 1159 2009 
Q 1159 1288 1364 580 
Q 1569 -128 1984 -844 
L 1484 -844 
Q 1016 -109 783 600 
Q 550 1309 550 2009 
Q 550 2706 781 3412 
Q 1013 4119 1484 4856 
L 1984 4856 
z
" transform="scale(0.015625)"/>
       <path id="DejaVuSans-64" d="M 2906 2969 
L 2906 4863 
L 3481 4863 
L 3481 0 
L 2906 0 
L 2906 525 
Q 2725 213 2448 61 
Q 2172 -91 1784 -91 
Q 1150 -91 751 415 
Q 353 922 353 1747 
Q 353 2572 751 3078 
Q 1150 3584 1784 3584 
Q 2172 3584 2448 3432 
Q 2725 3281 2906 2969 
z
M 947 1747 
Q 947 1113 1208 752 
Q 1469 391 1925 391 
Q 2381 391 2643 752 
Q 2906 1113 2906 1747 
Q 2906 2381 2643 2742 
Q 2381 3103 1925 3103 
Q 1469 3103 1208 2742 
Q 947 2381 947 1747 
z
" transform="scale(0.015625)"/>
       <path id="DejaVuSans-29" d="M 513 4856 
L 1013 4856 
Q 1481 4119 1714 3412 
Q 1947 2706 1947 2009 
Q 1947 1309 1714 600 
Q 1481 -109 1013 -844 
L 513 -844 
Q 928 -128 1133 580 
Q 1338 1288 1338 2009 
Q 1338 2731 1133 3434 
Q 928 4138 513 4856 
z
" transform="scale(0.015625)"/>
      </defs>
      <use xlink:href="#DejaVuSans-41"/>
      <use xlink:href="#DejaVuSans-6e" x="68.408203"/>
      <use xlink:href="#DejaVuSans-67" x="131.787109"/>
      <use xlink:href="#DejaVuSans-6c" x="195.263672"/>
      <use xlink:href="#DejaVuSans-65" x="223.046875"/>
      <use xlink:href="#DejaVuSans-20" x="284.570312"/>
      <use xlink:href="#DejaVuSans-77" x="316.357422"/>
      <use xlink:href="#DejaVuSans-69" x="398.144531"/>
      <use xlink:href="#DejaVuSans-74" x="425.927734"/>
      <use xlink:href="#DejaVuSans-68" x="465.136719"/>
      <use xlink:href="#DejaVuSans-20" x="528.515625"/>
      <use xlink:href="#DejaVuSans-6e" x="560.302734"/>
      <use xlink:href="#DejaVuSans-6f" x="623.681641"/>
      <use xlink:href="#DejaVuSans-72" x="684.863281"/>
      <use xlink:href="#DejaVuSans-6d" x="724.226562"/>
      <use xlink:href="#DejaVuSans-61" x="821.638672"/>
      <use xlink:href="#DejaVuSans-6c" x="882.917969"/>
      <use xlink:href="#DejaVuSans-20" x="910.701172"/>
      <use xlink:href="#DejaVuSans-28" x="942.488281"/>
      <use xlink:href="#DejaVuSans-72" x="981.501953"/>
      <use xlink:href="#DejaVuSans-61" x="1022.615234"/>
      <use xlink:href="#DejaVuSans-64" x="1083.894531"/>
      <use xlink:href="#DejaVuSans-29" x="1147.371094"/>
     </g>
    </g>
   </g>
   <g id="matplotlib.axis_2">
    <g id="ytick_1">
     <g id="line2d_10">
      <defs>
       <path id="md751fb9300" d="M 0 0 
L -3.5 0 
" style="stroke: #000000; stroke-width: 0.8"/>
      </defs>
      <g>
       <use xlink:href="#md751fb9300" x="43.78125" y="273.312" style="stroke: #000000; stroke-width: 0.8"/>
      </g>
     </g>
     <g id="text_11">
      <!-- 0.0 -->
      <g transform="translate(20.878125 277.111219)scale(0.1 -0.1)">
       <use xlink:href="#DejaVuSans-30"/>
       <use xlink:href="#DejaVuSans-2e" x="63.623047"/>
       <use xlink:href="#DejaVuSans-30" x="95.410156"/>
      </g>
     </g>
    </g>
    <g id="ytick_2">
     <g id="line2d_11">
      <g>
       <use xlink:href="#md751fb9300" x="43.78125" y="226.90219" style="stroke: #000000; stroke-width: 0.8"/>
      </g>
     </g>
     <g id="text_12">
      <!-- 0.2 -->
      <g transform="translate(20.878125 230.701409)scale(0.1 -0.1)">
       <use xlink:href="#DejaVuSans-30"/>
       <use xlink:href="#DejaVuSans-2e" x="63.623047"/>
       <use xlink:href="#DejaVuSans-32" x="95.410156"/>
      </g>
     </g>
    </g>
    <g id="ytick_3">
     <g id="line2d_12">
      <g>
       <use xlink:href="#md751fb9300" x="43.78125" y="180.49238" style="stroke: #000000; stroke-width: 0.8"/>
      </g>
     </g>
     <g id="text_13">
      <!-- 0.4 -->
      <g transform="translate(20.878125 184.291598)scale(0.1 -0.1)">
       <use xlink:href="#DejaVuSans-30"/>
       <use xlink:href="#DejaVuSans-2e" x="63.623047"/>
       <use xlink:href="#DejaVuSans-34" x="95.410156"/>
      </g>
     </g>
    </g>
    <g id="ytick_4">
     <g id="line2d_13">
      <g>
       <use xlink:href="#md751fb9300" x="43.78125" y="134.082569" style="stroke: #000000; stroke-width: 0.8"/>
      </g>
     </g>
     <g id="text_14">
      <!-- 0.6 -->
      <g transform="translate(20.878125 137.881788)scale(0.1 -0.1)">
       <use xlink:href="#DejaVuSans-30"/>
       <use xlink:href="#DejaVuSans-2e" x="63.623047"/>
       <use xlink:href="#DejaVuSans-36" x="95.410156"/>
      </g>
     </g>
    </g>
    <g id="ytick_5">
     <g id="line2d_14">
      <g>
       <use xlink:href="#md751fb9300" x="43.78125" y="87.672759" style="stroke: #000000; stroke-width: 0.8"/>
      </g>
     </g>
     <g id="text_15">
      <!-- 0.8 -->
      <g transform="translate(20.878125 91.471978)scale(0.1 -0.1)">
       <use xlink:href="#DejaVuSans-30"/>
       <use xlink:href="#DejaVuSans-2e" x="63.623047"/>
       <use xlink:href="#DejaVuSans-38" x="95.410156"/>
      </g>
     </g>
    </g>
    <g id="ytick_6">
     <g id="line2d_15">
      <g>
       <use xlink:href="#md751fb9300" x="43.78125" y="41.262949" style="stroke: #000000; stroke-width: 0.8"/>
      </g>
     </g>
     <g id="text_16">
      <!-- 1.0 -->
      <g transform="translate(20.878125 45.062168)scale(0.1 -0.1)">
       <use xlink:href="#DejaVuSans-31"/>
       <use xlink:href="#DejaVuSans-2e" x="63.623047"/>
       <use xlink:href="#DejaVuSans-30" x="95.410156"/>
      </g>
     </g>
    </g>
    <g id="text_17">
     <!-- Probability density -->
     <g transform="translate(14.798438 186.606781)rotate(-90)scale(0.1 -0.1)">
      <defs>
       <path id="DejaVuSans-50" d="M 1259 4147 
L 1259 2394 
L 2053 2394 
Q 2494 2394 2734 2622 
Q 2975 2850 2975 3272 
Q 2975 3691 2734 3919 
Q 2494 4147 2053 4147 
L 1259 4147 
z
M 628 4666 
L 2053 4666 
Q 2838 4666 3239 4311 
Q 3641 3956 3641 3272 
Q 3641 2581 3239 2228 
Q 2838 1875 2053 1875 
L 1259 1875 
L 1259 0 
L 628 0 
L 628 4666 
z
" transform="scale(0.015625)"/>
       <path id="DejaVuSans-62" d="M 3116 1747 
Q 3116 2381 2855 2742 
Q 2594 3103 2138 3103 
Q 1681 3103 1420 2742 
Q 1159 2381 1159 1747 
Q 1159 1113 1420 752 
Q 1681 391 2138 391 
Q 2594 391 2855 752 
Q 3116 1113 3116 1747 
z
M 1159 2969 
Q 1341 3281 1617 3432 
Q 1894 3584 2278 3584 
Q 2916 3584 3314 3078 
Q 3713 2572 3713 1747 
Q 3713 922 3314 415 
Q 2916 -91 2278 -91 
Q 1894 -91 1617 61 
Q 1341 213 1159 525 
L 1159 0 
L 581 0 
L 581 4863 
L 1159 4863 
L 1159 2969 
z
" transform="scale(0.015625)"/>
       <path id="DejaVuSans-79" d="M 2059 -325 
Q 1816 -950 1584 -1140 
Q 1353 -1331 966 -1331 
L 506 -1331 
L 506 -850 
L 844 -850 
Q 1081 -850 1212 -737 
Q 1344 -625 1503 -206 
L 1606 56 
L 191 3500 
L 800 3500 
L 1894 763 
L 2988 3500 
L 3597 3500 
L 2059 -325 
z
" transform="scale(0.015625)"/>
       <path id="DejaVuSans-73" d="M 2834 3397 
L 2834 2853 
Q 2591 2978 2328 3040 
Q 2066 3103 1784 3103 
Q 1356 3103 1142 2972 
Q 928 2841 928 2578 
Q 928 2378 1081 2264 
Q 1234 2150 1697 2047 
L 1894 2003 
Q 2506 1872 2764 1633 
Q 3022 1394 3022 966 
Q 3022 478 2636 193 
Q 2250 -91 1575 -91 
Q 1294 -91 989 -36 
Q 684 19 347 128 
L 347 722 
Q 666 556 975 473 
Q 1284 391 1588 391 
Q 1994 391 2212 530 
Q 2431 669 2431 922 
Q 2431 1156 2273 1281 
Q 2116 1406 1581 1522 
L 1381 1569 
Q 847 1681 609 1914 
Q 372 2147 372 2553 
Q 372 3047 722 3315 
Q 1072 3584 1716 3584 
Q 2034 3584 2315 3537 
Q 2597 3491 2834 3397 
z
" transform="scale(0.015625)"/>
      </defs>
      <use xlink:href="#DejaVuSans-50"/>
      <use xlink:href="#DejaVuSans-72" x="58.552734"/>
      <use xlink:href="#DejaVuSans-6f" x="97.416016"/>
      <use xlink:href="#DejaVuSans-62" x="158.597656"/>
      <use xlink:href="#DejaVuSans-61" x="222.074219"/>
      <use xlink:href="#DejaVuSans-62" x="283.353516"/>
      <use xlink:href="#DejaVuSans-69" x="346.830078"/>
      <use xlink:href="#DejaVuSans-6c" x="374.613281"/>
      <use xlink:href="#DejaVuSans-69" x="402.396484"/>
      <use xlink:href="#DejaVuSans-74" x="430.179688"/>
      <use xlink:href="#DejaVuSans-79" x="469.388672"/>
      <use xlink:href="#DejaVuSans-20" x="528.568359"/>
      <use xlink:href="#DejaVuSans-64" x="560.355469"/>
      <use xlink:href="#DejaVuSans-65" x="623.832031"/>
      <use xlink:href="#DejaVuSans-6e" x="685.355469"/>
      <use xlink:href="#DejaVuSans-73" x="748.734375"/>
      <use xlink:href="#DejaVuSans-69" x="800.833984"/>
      <use xlink:href="#DejaVuSans-74" x="828.617188"/>
      <use xlink:href="#DejaVuSans-79" x="867.826172"/>
     </g>
    </g>
   </g>
   <g id="line2d_16">
    <path d="M 60.013977 273.312 
L 79.837728 229.070771 
L 90.237073 206.410126 
L 99.01152 187.807634 
L 106.811029 171.785201 
L 113.960578 157.603602 
L 120.460169 145.189911 
L 126.63478 133.865456 
L 132.484411 123.595476 
L 138.009063 114.33587 
L 143.208736 106.035446 
L 148.408408 98.158423 
L 153.283101 91.175994 
L 157.832814 85.02434 
L 162.382528 79.237589 
L 166.607261 74.200727 
L 170.831995 69.496594 
L 175.056729 65.133052 
L 178.956483 61.413781 
L 182.856238 57.996232 
L 186.755992 54.885271 
L 190.330767 52.306678 
L 193.905542 49.992516 
L 197.480316 47.945555 
L 201.055091 46.168244 
L 204.304886 44.788296 
L 207.554682 43.634324 
L 210.804477 42.707471 
L 214.054272 42.008653 
L 217.304067 41.53856 
L 220.553863 41.297657 
L 223.803658 41.286184 
L 227.053453 41.50415 
L 230.303248 41.951341 
L 233.553044 42.627315 
L 236.802839 43.531402 
L 240.052634 44.662709 
L 243.302429 46.020117 
L 246.552225 47.602284 
L 250.126999 49.600391 
L 253.701774 51.866167 
L 257.276549 54.396903 
L 260.851324 57.189568 
L 264.751078 60.53091 
L 268.650832 64.17523 
L 272.550587 68.11734 
L 276.77532 72.717487 
L 281.000054 77.652841 
L 285.549768 83.333244 
L 290.099481 89.381826 
L 294.974174 96.257684 
L 299.848867 103.527435 
L 305.048539 111.697754 
L 310.248212 120.277142 
L 315.772863 129.816653 
L 321.622495 140.363614 
L 327.797106 151.957837 
L 334.296696 164.629382 
L 341.446246 179.062496 
L 349.245755 195.319561 
L 358.020202 214.134833 
L 368.419546 236.975494 
L 383.693584 271.122832 
L 384.668523 273.312 
L 384.668523 273.312 
" clip-path="url(#p37897d8ff3)" style="fill: none; stroke: #ff7f0e; stroke-width: 1.5; stroke-linecap: square"/>
   </g>
   <g id="patch_203">
    <path d="M 43.78125 273.312 
L 43.78125 7.2 
" style="fill: none; stroke: #000000; stroke-width: 0.8; stroke-linejoin: miter; stroke-linecap: square"/>
   </g>
   <g id="patch_204">
    <path d="M 400.90125 273.312 
L 400.90125 7.2 
" style="fill: none; stroke: #000000; stroke-width: 0.8; stroke-linejoin: miter; stroke-linecap: square"/>
   </g>
   <g id="patch_205">
    <path d="M 43.78125 273.312 
L 400.90125 273.312 
" style="fill: none; stroke: #000000; stroke-width: 0.8; stroke-linejoin: miter; stroke-linecap: square"/>
   </g>
   <g id="patch_206">
    <path d="M 43.78125 7.2 
L 400.90125 7.2 
" style="fill: none; stroke: #000000; stroke-width: 0.8; stroke-linejoin: miter; stroke-linecap: square"/>
   </g>
  </g>
 </g>
 <defs>
  <clipPath id="p37897d8ff3">
   <rect x="43.78125" y="7.2" width="357.12" height="266.112"/>
  </clipPath>
 </defs>
</svg>
